<?xml version="1.0" encoding="UTF-8"?>
<svg version="1.1" viewBox="0 0 2048 1365" width="612" height="408" xmlns="http://www.w3.org/2000/svg">
<path transform="translate(977,155)" d="m0 0h85l33 4 34 6 32 8 22 7 28 10 23 10 30 15 17 10 19 12 16 11 21 16 11 9 10 9 8 7 13 12 9 9 7 8 9 10 9 11 14 18 14 20 11 17 14 24 9 17 12 26 10 26 11 33 7 28 6 31 4 28 1 9 1 20v54l-3 37-6 35-6 26-9 31-9 25-11 26-18 36-15 25-15 22-14 19-11 13-9 11-11 12-7 8-14 14-11 9-11 10-14 11-13 10-23 16-27 16-29 15-21 10-29 11-27 9-32 8-32 6-23 3-20 2h-78l-40-5-30-6-32-8-36-12-24-10-28-13-22-12-23-14-16-11-15-11-14-11-13-11-14-12-26-26-9-11-9-10-7-9-12-16-20-30-14-24-14-27-12-28-10-27-7-23-8-30-4-21-4-27-2-22v-75l3-28 6-35 5-22 6-23 11-33 11-27 14-29 13-24 13-21 12-17 13-17 13-16 7-8 12-14 22-22 11-9 14-12 17-13 18-13 20-13 21-12 23-12 17-8 27-11 36-12 33-8 33-6z" fill="#FCFDFD"/>
<path transform="translate(1034,268)" d="m0 0h3l-1 5-17 6-4 2 12-3h8l-2 4-7 3-18 4-14 6-5 4-6 3-9 6 10-3 7-2 4 1-14 9-16 6-4 3 14-4 9-2v-4l15-9 7-3 13-3 9-1 10-4 2 1-2 2 10-1 17-3h7l-1 3h28l2 2-4 2-15 2-1 2h11l-5 4 9-1 22-4h5l1 2-13 3v2l16-1v4l-5 1h-20l-21 1-6 1-1 3h-17l-7-1-1-2 13-3 14-2 1-1-21-3h-21l-14 1-13 4-8 4-1 2 5-1h20l-2 2-12 2-6 3h21l19 1h13l2-1 17 1 8-1-1-4-4-1 14-1 9-1-4 4-4 2h19l16 3 2 2 8 1 23 1 8 5 3 3 17 6v4l-16-5h-7l23 7 1 4-8-2-17-5-10-2h-26l-15 4-12 6-5 1v1l13-2 12-6 6-2h24l23 5 14 5 10 8 10 9 15 15-2 1-7-3 24 24 9 10 1 5-4-2-10-13-8-7v2l9 14 4 10 2 1 8 21 11 29 8 15 1 4h-2l-1 6-3-3-11-26-4-8v-2h-2l4 9 12 35 4 9 8 17 8 11v4l-3-1-6-10-3-6-4-2 8 14 3 4v2l-4-1 2 4 5 6v3l-5 2-5-8-8-16-11-18 2 10v6l-3-4-2-7-1 1 7 26 5 13 7 12 2 1-9-18 1-4 11 15 6 4 10 11 7 8 7 6 5 4-5-1-9-5h-5v8l-8-6-16-16h-2l-1 6 2 9 3 8 8 8 10 5 7 2-4-4-15-9-5-6 5 2 10 6 13 3v3l-1 4 1 5-6 1v2h6l4 4 7 4v1l-12-1-7-6-12-6-9-1-2-1v2l5 2 15 5 6 4-3 1-8-2v3l17 1 2 4-12-2h-11l-9-2-18-1-5 16-2 3-6-1-9-6-5 2-11 3h-3l-2 14-5 15-5 8-3 2-1 6-6-4-7-6-16-8-5-4-5-9-13-18-11-12-7-10-1-2 2 10 2 8 10 15 9 14v-8l4 4 6 10 2 7 2 1v-5l8 2 14 9 14 11v3l-5 1-5-5-4-3v-2l-6-3 6 7 8 6-4 2-17 4 1 5 6 8 8 10 6 3v3l-5-2-14-14-7-11-6-7v3h2l3 7v3h-2l-7-8-17-2-7 10-5-1-3-2-3 1-2-7-6-1-5-2v-2l12 2-3-6-8-6-5-5-3-4v10l2 15 4 16 1 6v8l-4 5-3 1-9-15-9-12-3-3 10 15 8 14-1 3-6-7-7-9-5-6h-1v9h-6l-4-2 4 8v2l-5-1-9-8-3-5v-2h-3l1 4 1 24v21l-5 4-1-2v-8l-2 1-2 5-6-1v3l2 1-3 4-5 14h-2v-3l-7 1 1-6 5-15v-4l-7 13-1-3 1-2-3 2-4 13-5-1-1-3 1-2-6 3-3 5-10-3 3-3 16-10 11-9 10-10 6-9 1-3 1-15 2 4 2 8 5-13 1-4 1-15 4 5 8 11 2 1-4-16-6-12-8-9 3 12-3-1-8-11-2-1 1 4-4 16-7 16-7 14 1 1 8-10 8-16 2 2 1 10-8 11-5 5-7 4-5 2-8 10-7 10 6 2-1 4-4-1-4-2-17 17-8 6-6 1-10-4-4 1-11 28-8 16-8 14-3 1v-13l4-20-4 1-2 4-8 12h-2l-2 5-4 1-1-8-1-22v-17l-4 1-7 5h-2v2l-13 6-5 1h-20l-3-2 10-8 7-4 4-4-10-1-6-4-3-5v-2l-3 1-5 5v-4l4-9 2-9-1-10-8 1-2 1h-12l-8-4-6-8v-2l-15 4h-44l-7-2-10-1v-1l18-1 19-3h13v-2l14-5 9-7 10-5 1-2 7-4 8-7 4-5 9-9 1-2h2v-4l-5 3h-3v2l-8 7-10 7-20 7-1 1h-8l-26-7v-1l10-1 12-3 21-9 14-5 15-8 6-3 1-2 7-4 3-4-3 2h-3l1-8 8-8h-2l-3-6-1-5 4-5 5-4 7-2 4-2 2-4 4-3 1-5 21-8 6-4-4 1-1-2 1-2 6-3h2v-2l9-1 6-5 5-7-1-4 1-2-5 2-6-1-2-4 2-3v-6l6-8 3-9v-10l-4-13 1-2 4 4-6-9-9-10-7-9-12-12-6-4-6-2-1 6-5-2-12-6-5-2 5-4 7-4 18-2 3-1-6-1-4 1h-11l-16 8-12 5-7 1 4-3 16-8 29-15 4-2-8 1-26 7-25 6-2 1 7 1 1 4-12 6-15 5-14 2-20 1 1-4 7-8 8-6 12-6 15-5 21-5 44-5 15-1-13-1h-18l-23 3-23 5-20 7-13 7-10 9-6 7-6 13-2 9-1 13-4-5-4-10-2-10-1-21 2-17 4-17 4-10 2-1-2 9-2 10v13l3 15 3 9h2l-5-20-1-14 2-12 7-16 7-10 7-8 11-9 2-2 7-1 5-1 9 12 8 9 7 4-1-3-8-7-11-13-5-9v-9h1l3 11 9 11 24 24 9 11v2h2l1 2 3 1 1-2h-2l-10-13-11-13-13-13-5-8v-2l-3-1-1-5 5-5 6-3 10-1 7 3v2l5 2v3l-6-4h-15l-7 4v4l10 12 2 1-5-8-1-5 2-3 8-1 6 3 8 7 5 9-1 8 4-1v-4l2-1 1-5 6 2-2-4-1-3-4-2-8-6-1-3 5 2 11 9 7 5-3-4 1-4v2h2l-4-10-4-11v-5l5 5 4 12-1-9-5-11 4 1 5 6 2 3-4-10-3-5-8-4-13-1 2-7 4-6 4-1 4 1 5-5 5-6 4-9 5-1 5-12 2 2v3l5-5 4-3-1 4-7 8-10 14-5 11-2 8 3-3 9-17 7-10 9-10 8-7 6-5 5-2 7-7 1-2 2 1-3 5 5-5 10-9 3-3 7-1-5 5-7 6 6-2 16-9 8-5h8l-1 3-14 9-10 8-8 6-11 8 9-3 8-4 7-3 23-12 17-7-4-1v-2l10-4 4 1-2 2 9-3z" fill="#0A0707"/>
<path transform="translate(808,384)" d="m0 0h1l3 11 9 11 24 24 9 11v2h2l1 2h4l4 2-4-4-6-11-1-5 6 5 5 5 1 3 11 3 33 3 20 1h21l19-1h27l6 3 2 2-1 7-5 4-7 3-12 2-48 4-36 6h-5l-3-2-7 1h-11l-16 8-12 5-7 1 4-3 16-8 29-15 4-2-8 1-26 7-25 6-2 1 7 1 1 4-12 6-15 5-14 2-20 1 1-4 7-8 8-6 12-6 15-5 21-5 44-5 15-1-13-1h-18l-23 3-23 5-20 7-13 7-10 9-6 7-6 13-2 9-1 13-4-5-4-10-2-10-1-21 2-17 4-17 4-10 2-1-2 9-2 10v13l3 15 3 9h2l-5-20-1-14 2-12 7-16 7-10 7-8 11-9 2-2 7-1 5-1 9 12 8 9 7 4-1-3-8-7-11-13-5-9z" fill="#D9852C"/>
<path transform="translate(936,593)" d="m0 0 1 2-4 6-3 1v2l-5 4-3 4h-5l-3 1v2l-4 4-7 8-5 7-8 16-2 6 12-7h2l-1 4-17 9-15 22-6 5-8 2v3l4-1 1 2-3 5 8-6 7-11 9-13 7-7 7-4 3 1-4 11-2 14v12l4-1 11-9 5-5 7-8 1 3-6 11-6 14-7 14-3 5h-2v2l-5 3h-3v-26l-1-1-1 6-2 24-1 5 5-3 2 1-7 8-7 13-9 11-8 8-7 5h-2l2-5 6-17 3-10-4 1-6-2-12 13-8 7 1 2h-12l-8-4-6-8v-2l-15 4h-44l-7-2-10-1v-1l18-1 19-3h13v-2l14-5 9-7 10-5 1-2 7-4 8-7 4-5 9-9 1-2h2v-4l-5 3h-3v2l-8 7-10 7-20 7-1 1h-8l-26-7v-1l10-1 12-3 21-9 14-5 15-8 6-3 1-2 7-4 3-4-3 2h-3l1-8 8-8h-2l-3-6-1-5 4-5 5-4 7-2 4-2 2-4 4-3 1-5 21-8 6-4-4 1-1-2 1-2 6-3h2v-2l5-1 3 2h3l6-5 8-6z" fill="#F5E0B3"/>
<path transform="translate(1037,262)" d="m0 0h7l1 2-3 2h51l2 3-9 3-12 3-21 5h-2v2l25-3 15-3 2-1h24l4 2-2 4 1 1 15 3 7 3 4 3 15 1h17l8 2-1 3-18 1-15 5-19 5-3 1v2l15 1 9 2 8 6 19 3 1 3 6 2 10 6 12 13 7 5v2l-8-1-13-6-3-1 3 10 7 5 7 3 10 8 7 7 6 8 5 9 4 5 5 9 3 8-1 3-9-11-20-20-4-3v-2l8 2-21-21-13-10-14-5-12-3-11-2h-24l-15 6-6 3-11 1 1-3 7-2 10-5 15-4h26l21 5 14 5-1-3-25-8v-1h9l16 5v-2l-19-7-2-2-5-4-2-1-23-1-8-1-2-2-16-3h-20l2-3 6-3-8 1-10 1 3 4-10 2h-8l-9-1-2 1h-13l-19-1h-24l3-2 6-3 12-2h-23l1-3 13-6 8-2 14-1h21l21 3 1 2-7 2-20 3-1 1 9 1h15l3-3 4-1 21-1h24l1-3h-16v-2l12-4-12 1-19 4h-6l4-4-9-1 1-3 15-2 3-1-1-1-28-1v-2l-12 1-16 3h-6l1-3-10 4-13 2-15 4-9 6-5 3h-2v4l-15 5-8 2v-3l11-5 10-4 10-6h-4l-12 4-3-1 3-3 7-4 10-6 10-5 12-4 14-3 5-3 1-2-11 2-7 2-4-1 16-7 7-1 1-5-20 9-5 2-3-1 2-2-6 1-7 2v2h5l-1 2-23 10-17 9-9 4-13 6-3-1 12-9 10-8 15-11 7-4 1-2-10 2-6 4h-2v-2l4-2 1-4h5l4-1 1 1 14-1 1-3 13-2 4-2 11-1z" fill="#F8E7BE"/>
<path transform="translate(974,895)" d="m0 0 4 1 5 77v12h-11l-1-6-2-37-1-31-16 45-9 24-3 5h-7l-3-5-13-38-9-29v-2h-2l1 7-1 29-2 30-1 8h-10l-1-5 3-43 3-41h15l9 24 12 35 3 11 2-3 6-19 15-41 3-7z" fill="#0A0707"/>
<path transform="translate(871,364)" d="m0 0 4 2 6 11 1 6-3-3-4-6-4-2 5 10 1 11-2-2-4-12-3-4 1 7 5 12 1 6-2 1 3 4-1 2-9-7-12-9 1 3 10 7 4 5-1 3-5-2-2 5h-2v4l-4 1v-8l-5-9-10-8-8-1-3 1-1 4 4 8 1 3-4-2-4-5-6-7 2-4 7-4h15l6 4-5-4-3-3-10-1-9 3-5 5 1 5 3 3 6 9 16 16 16 20v2h2l-1 3-4-2v-2h-2l-8-10-9-10-20-20-6-8-2-6 1 6 6 9 12 14 5 4v3l-4-1-10-9-8-11-2-3-5 1-7 1-11 10-5 4-9 12-7 15-2 6-1 15 3 17 2 5v6h-2l-5-12-2-12v-13l2-10 2-8-5 13-4 19-1 21 1 17-2-1-1-10-1-2-1-10v-27l2-11 5-15 5-8 10-13 8-8 5-6 8-6 15-6 4-7h2v10h4l1-4 8-6 3-3 10-4 7-1v-2l7-1 14-1 6 2 1-1-2-1z" fill="#F9EDCE"/>
<path transform="translate(895,659)" d="m0 0 3 1-4 11-2 14v12l4-1 11-9 5-5 7-8 1 3-6 11-6 14-7 14-3 5h-2v2l-5 3h-3v-26l-1-1-1 6-2 24-1 5 5-3 2 1-7 8-7 13-9 11-8 8-7 5h-2l2-5 6-17 3-10-4 1-6-2-12 13-8 7 1 2h-6l3-5 11-11 13-17 3-6 2-7 5-5 3-6-3-1v-3h3l1-3-7 2-10-1 1-3-4-4h5l4 3v-3l-2-1 2-2 4 1-3 6 8-6 7-11 9-13 7-7z" fill="#D7852D"/>
<path transform="translate(1085,895)" d="m0 0h7l4 4 28 44 9 16 4 8v-66l1-5h10v88l-1 1h-10l-3-3-15-24-12-19-9-15-5-9v-2h-2l1 8v64h-11v-89z" fill="#0A0707"/>
<path transform="translate(1032,895)" d="m0 0 5 1 6 15 24 71v3h-12l-8-24v-3h-32l-4 10-5 15-1 2h-11l-1-2 30-86 1-1z" fill="#0A0707"/>
<path transform="translate(1234,896)" d="m0 0h12l1 37 42 1 1-38h9l1 1v87l-1 1h-8l-1-1-1-40h-42l-1 39-1 2h-9l-1-1-1-27z" fill="#0A0707"/>
<path transform="translate(745,896)" d="m0 0h7l1 1 1 32 1 4 42 1v-22l1-16h11v87l-1 2h-9l-1-1-1-41h-43l-1 41-1 1h-7l-2-3v-84z" fill="#0A0707"/>
<path transform="translate(1032,700)" d="m0 0 4 2 7 10 2 1-4-11 1-2 7 7 6 10 4 11 1 10-4-2-9-13-1 13-4 13-3 5-2-3-1-6-1 11-4 8-11 12-11 10-17 11-4 2 2 2-8 2-11 4-7-1 4-3 10-8 14-14 5 3h3l1-3-6-2 2-4 11-15 3-3 7-3 6-3 10-14-1-10-2 3-6 11-8 10-3 2 1-5 11-23 4-11 2-12z" fill="#EAB166"/>
<path transform="translate(829,896)" d="m0 0h48v10l-36 1v26l34 1v8l-1 1-33 1-1 31 39 1v7l-2 2h-46l-1-1-1-26z" fill="#0A0707"/>
<path transform="translate(1035,304)" d="m0 0h21l21 3 1 2-7 2-20 3-1 1 9 1h15l3-3 4-1 21-1h20l4 1v2h7l5 1 7 1 10 1 1 4-7 3 1 2h16l3-1h8v3h-11v2l8 2 1 2h-3l-1 2-2-2-5-4-2-1-23-1-8-1-2-2-16-3h-20l2-3 6-3-8 1-10 1 3 4-10 2h-8l-9-1-2 1h-13l-19-1h-24l3-2 6-3 12-2h-23l1-3 13-6 8-2z" fill="#EEBA72"/>
<path transform="translate(864,702)" d="m0 0h3l-1 4-3-1 1 3 2 1-1 5-4 4h-2l-3 11-7 11-12 14-9 9-2 3-9-1-6-4-5-7v-2l-15 4-4-1 19-8 8-6 11-11 8-10 7-11 8-5 1-1h11z" fill="#0A0707"/>
<path transform="translate(871,458)" d="m0 0h39l-1 2-17 4-19 10-16 9-15 6-7 1 4-3 16-8 29-15 4-2-8 1-26 7-25 6-2 1 7 1 1 4-12 6-15 5-14 2-20 1 1-4 7-8 8-6 12-6 15-5 21-5z" fill="#0A0707"/>
<path transform="translate(968,677)" d="m0 0h1l-1 21-2 14-6 18-6 9-9 10-9 8-17 10-10 4-4-1 3-6 8-10 8-15 12-14 10-13 12-19z" fill="#EBB267"/>
<path transform="translate(1158,896)" d="m0 0h66v10h-27v78l-1 1h-10l-1-15v-64h-27z" fill="#0A0707"/>
<path transform="translate(1096,692)" d="m0 0 9 9 10 8 1 5-10-1-2-1v2l10 2h2l1 9-4 17-3 7-2 1-2 5h-6l1 9-1 2-4-1-5-5-6-7-10-8-3 4-2 6h-2l-2 6-6 11-6 7-1 2h-2l-1 2-2-48h3l6 9 8 6 3 1-4-8v-2l10 2-1-9h3l11 13 6 8-2-6-10-16-6-9 1-3 8 11 7 10 6 11 5-3 1-2v-8l-6-27-1-10z" fill="#F5DBAC"/>
<path transform="translate(962,592)" d="m0 0 1 4-4 8-7 6-11 4h-2v2l11 1 3 2 5 1-2 4-7 7-8 7-10 10-9 11-9 10-4 2-1 3h-2l-1-8 1-3-7 7-1-2 4-10 4-6 5-6 10-7-5 1-10 5-2-1 8-6 7-5 1-3-8 1 1-3 17-13 3-1-1-3-9 7-7 5-3-1 5-6 6-4h3v-2l10-4 8-6 2-3 2 1-4 6-5 2-1 4 6-2 9-6z" fill="#D9852C"/>
<path transform="translate(963,449)" d="m0 0h20l-2 2-8 2 19-1 7 1-1 3-6 4-29 4-13 2 19 1v1l-37 3-36 6h-5l-3-2-7 1-9-1 4-4 19-9 8-2 14-2 13-2 26-2 7-1-50-1v-1l48-1z" fill="#EDBB6A"/>
<path transform="translate(806,385)" d="m0 0 1 4v4h2l6 10 13 15 5 4v3l-4-1-10-9-8-11-2-3-5 1-7 1-11 10-5 4-9 12-7 15-2 6-1 15 3 17 2 5v6h-2l-5-12-2-12v-13l2-10 2-8-5 13-4 19-1 21 1 17-2-1-1-10-1-2-1-10v-27l2-11 5-15 5-8 10-13 8-8 5-6 8-6z" fill="#F6D787"/>
<path transform="translate(762,437)" d="m0 0 1 3-3 9-1 7v13l3 15 4 9 2 1 3-12 7-17 7-9 4-2h7l9 4 1 3-6 4-2 2 6-2 9-4 12-3 16-3 28-5 37 2v1l-40 2-23 3-23 5-20 7-13 7-10 9-6 7-6 13-2 9-1 13-4-5-4-10-2-10-1-21 2-17 4-17 4-10z" fill="#0A0707"/>
<path transform="translate(831,380)" d="m0 0 10 1 3 2v2l5 2v3l-6-4h-15l-7 4v4l10 12 2 1-5-8-1-5 2-3 8-1 6 3 8 7 5 9-1 8 4-1v-4l2-1 1-5 6 2-3-6 4 2 7 10 2 4 2 5v5l-4-2-2-3h-2l4 8 5 6v2l-5-2-7-5h-4l-1 5-9-9 2 6 6 10 4 5-4-2-5-5-11-13-8-10-14-14-5-8v-2l-3-1-1-5 5-5 6-3z" fill="#CC7D2A"/>
<path transform="translate(1178,326)" d="m0 0 9 2 8 4 6 5 7 8 9 7v2l-8-1-13-6-3-1 3 10 7 5 7 3 10 8 7 7 6 8 5 9 4 5 5 9 3 8-1 3-9-11-20-20-4-3v-2l8 2-21-21-13-10-14-5-12-3-11-2h-24l-15 6-6 3-11 1 1-3 7-2 10-5 15-4h26l21 5 14 5-1-3-25-8v-1h9l16 5v-2l-17-6-1-3 2-1-8-3v-2l11-1z" fill="#FAEEC9"/>
<path transform="translate(936,593)" d="m0 0 1 2-4 6-3 1v2l-5 4-3 4h-5l-3 1v2l-4 4-7 8-5 7-8 16-2 6 12-7h2l-1 4-17 9-15 22-6 5-9 1 1-4 10-21 8-12 5-7 1 2-8 17-2 6 4-4 11-17 3-5 3-9 2-3-5 2-4 6-7 5-4-1-1-3h-6l1-3 4-1 2-4 4-3 1-5 21-8 6-4-4 1-1-2 1-2 6-3h2v-2l5-1 3 2h3l6-5 8-6z" fill="#EAB266"/>
<path transform="translate(1044,599)" d="m0 0h2v8l-2 5v4h3l1 4 5-9 3-4 3 7 6 28v5l-5-2 1 11-4-4-3-7-3-12-2 3-2 17h-3l-2-13-2 10-2-3v-13l3-10v-4l-6 7-7 5-5 2-2 9-3 7v4l6-12 3 2 4 15 3 6v3l-6-2-6-1-1 1 1 9 2 2v4l-3-1-6-12v-21l4-8 2-6 11-12 9-16z" fill="#D8842B"/>
<path transform="translate(1011,642)" d="m0 0 1 3-1 3v29l-2 18-5 21-4 12h-1l-1-5v-29l-4 9-2 6-1-4 2-9-3 3-6 12-7 10-9 10-5 4-1-2 7-12 7-10v-2l-5 6-1-3 8-16 5-7 11-7 5-4h2l-1 10 2-7 3-27 1-7z" fill="#F3CE7F"/>
<path transform="translate(1252,522)" d="m0 0 4 4 9 15 8 16 4 7 5-1-4-7-4-5-1-3h2v2l4 1-11-18v-2l5 2 7 13 4 4 1-3 1 7 12 9 11 8 8 4v2h-11l-12-4-11-7-4-1 3 9-1 1v5l-9-6-10-14 1 5 7 14v2l-3-1-8-14-7-21-4-17h2l4 9-1-8z" fill="#F9EAC3"/>
<path transform="translate(808,378)" d="m0 0h2l-2 5-4 4-13 5-11 9-7 8-6 7-9 12-6 15-2 7-1 14v21l1 10 1 2 1 10 2 2 4 12 3 5 2-16 3-9 1 4-2 8-1 18-4-1-4-3-5-3-6-12-4-16v-29l4-20 5-13 6-11 10-13 10-10h2l2-4 10-8 9-6 8-2z" fill="#F9EBC3"/>
<path transform="translate(854,427)" d="m0 0 6 5 5 5 1 3 11 3 33 3 20 1h21l19-1h27l6 3 2 2-1 7-5 4-7 3-12 2h-31l1-2 30-4 12-2 6-4 1-2h-9l-11 1h-12v-1l14-3h-18l-2 1h-66l-25-2-9-7-7-12z" fill="#F6DEAE"/>
<path transform="translate(1135,484)" d="m0 0h9l11 4 14 9 7 6 11 7 10 9 6 7 4 11-4-2-7-6-15-10v-2l9 1-8-5-7-4-14-1-16-4-11 1-8-4v-1l8-1h14l-18-4-8-2v-2l11-3v-3z" fill="#D9862E"/>
<path transform="translate(934,288)" d="m0 0h4v2l2 1-1 3-5 5-4 2 3-6-10 10-5 2-10 9-9 8-7 10-8 14-5 9h-2l1-8 7-14 12-16 4-4-1-1-5 6h-2l-2-4-4 11-4 2-2-1-3 9-9 11-3 1-6-1-4 4v-5h2l2-5h2l1-4 3-1v9h2l-1-3 4-4 2-9 3-7 6-8 6-3 1-5 9-2 2-2 4 1v3l5-1 12-9 6-3 5-5z" fill="#F6DEB0"/>
<path transform="translate(919,778)" d="m0 0h1v17l-1 20v15h-2l-2 4-8 12h-2l-2 5-4 1-1-8-1-22v-13l2 1 4-13 3-9h3l1 15 2 12h2l1-16 3-17z" fill="#D9852D"/>
<path transform="translate(1035,304)" d="m0 0h21l21 3 1 2-7 2-22 2-4 2 9 3 2 3-4 2h-51l3-2 6-3 12-2h-23l1-3 13-6 8-2z" fill="#F8DD8E"/>
<path transform="translate(890,632)" d="m0 0 3 1-3 4-3 9-7 12-9 13h-2l2-8 7-16-10 15-8 16-5 9-1-3-4-1 1-4 2-3-3 2h-3l1-8 8-8h-2l-3-6-1-5 4-5 5-4 6-1 6 1 2 3 5-1 6-5 3-5z" fill="#0A0707"/>
<path transform="translate(1075,596)" d="m0 0 3 3 6 12 1 10 2 5v3h2l1 5-3-3-1 4 8 16 2 8v24l-7 12h-2l6-12v-5h-2v6l-4-1v-4h-2l2 5v5h-3l-2-7 2-22v-3l-5 17h-2l-2-13 1-8 4-11v-28l-5-16z" fill="#DA8A33"/>
<path transform="translate(880,316)" d="m0 0m-1 1m-2 1h2l-2 5-4 9-1 7-2 4-2 1v2h-2v-9l-3 2-1 3-3 3-1 2h-2v7l-3 7h13l5 2v3l3 1-3 2-7-2-12 1h-7v2l-15 5-4 1-2 4-7 5-1 3h-4v-10l-2-1 16-8 17-6 3-2v-10l3-8 5-4 4-11 4-2 1 5 7-1 5-10z" fill="#F9E9C0"/>
<path transform="translate(1173,433)" d="m0 0h16l12 3 8 5 3 7 5 5 6 9-4-2-10-9 3 4 7 8 9 10 4 6-1 2-7-6-14-8-8-2-6-7-3-6-8-8-4-5-8-5z" fill="#F4D182"/>
<path transform="translate(915,575)" d="m0 0h2l1 6-2 4 3 3 9-1v5 3l-9 10-6 1h-5v2l-5 3h-3l1 3h2l1-2v3l-8 5-13 5-3-1 6-5 3-1v-6l5-6 3-1-2 7 6-4h2l-1-4 9-6 4-2-1-3-9 1-5 4h-3v2l-3 2h-18l-3-2-6-1v-3h13v-2h14l3-2h6l2-4 5-7 1-5z" fill="#FAECC7"/>
<path transform="translate(1145,356)" d="m0 0h7l3 1 13 1 12 4 6 4v2h-28l-15 2 3 2-4 4-6 2h-7l4-4 3-1-2-1v-2l9-5 9-4v-2l-6 1-12 6-17 12-11 6-3-1 4-7 5-3 1-2-2-1 6-5 12-5z" fill="#D9872E"/>
<path transform="translate(833,711)" d="m0 0h2l-2 4-12 14-5 7-3 3h-2l-2 4-6 1 1 5-17 7h-40l-7-2-10-1v-1l18-1 19-3h13v-2l14-5 9-7 10-5 1-2 7-4 8-7z" fill="#DB8A33"/>
<path transform="translate(1008,325)" d="m0 0h25l22 3 4 1 1 3h-22v2l-12-2-13-1-1 3-20 6-10 4-8 4-7 2-16 8-3-1 9-8 13-8 19-9 4-3z" fill="#F3CE7F"/>
<path transform="translate(1168,542)" d="m0 0 5 2 14 9 10 10 9 15 4 13-1 12-1 3h-2l-3-9h-2l-1 4-6-13-7-16-6-13-2-3-2 2-9-14z" fill="#F4D181"/>
<path transform="translate(995,453)" d="m0 0h4l-1 3-6 4-21 3-37 3-46 7h-8l4-3 13-5 25-5 46-5z" fill="#0A0707"/>
<path transform="translate(745,894)" d="m0 0h8l2 1 1 37-2 1-1-4-1-32h-7l-1 1v84l1 2h7l1-32 1-9h43l1 2 1 39 9 1 1-89h-11v-1h12v91l-1 1h-12l-1-1v-41h-40v38l-2 4h-12l-2-2 1-89z" fill="#F3D5A3"/>
<path transform="translate(1295,894)" d="m0 0 6 1 1 90-2 2h-11l-1-1v-41h-40l-1 41-1 1h-12l-2-2 1-89h1l1 61 1 27 9 1 1-41 1-1h42l1 1 1 40h8v-87l-9-1v36l-1 2h-42l-1-1v-37h1l1 35 39 1 1-36z" fill="#FAEBC4"/>
<path transform="translate(904,777)" d="m0 0h2l-2 6-8 14-7 10-3 4h-2v2l-13 6-5 1h-20l-3-2 5-4 10-3 14-8 18-13 13-12z" fill="#D5832B"/>
<path transform="translate(1205,497)" d="m0 0 5 2 15 15 9 12 7 16 4 15v8l-2-1-5-15h-1v8l-3-4-1-4-1 1-1 7-2-2-2-10h-2l-1 2-4-16-6-18-6-11-3-3z" fill="#F4D282"/>
<path transform="translate(985,725)" d="m0 0h2l2 4v5l-5 1-4-1v4h10l1-3 5-1-1 5-4 6-9 10-9 6-16 7-15 4-3-1 9-6 5-3 17-17 9-12z" fill="#ECB56A"/>
<path transform="translate(995,370)" d="m0 0 8 2h3 3l2 6v13l-4 8-5 5-7 5-10 2-10-2-8-6-4-7v-2l4 2 4 3v-3l10 3h8l6-2 2-5 4-4h3l2-10-4-1-8 2-4-3 1-5z" fill="#D9862E"/>
<path transform="translate(884,461)" d="m0 0h5l-2 3-19 9-20 11-11 5v2l-16 4 1-5-10 3-4-1 17-6 8-4h2l-1-3-9-1 4-3 29-7z" fill="#EABB6C"/>
<path transform="translate(1038,282)" d="m0 0 4 1-1 2-5 2h-5v2h-5l-1 3-3 3 6 1v1l-13 2-15 4-9 6-5 3h-2v4l-15 5-8 2v-3l11-5 10-4 10-6h-4l-12 4-3-1 3-3 7-4 10-6 10-5 12-4 13-2 1 1z" fill="#F4D183"/>
<path transform="translate(955,660)" d="m0 0 1 3-4 11-9 14h2l4-4-1 6-3 10-7 13-8 12-5 5-10 3-12 1-1-2 11-6 13-12 7-7-1-4 7-10 1-8 9-17z" fill="#EBB368"/>
<path transform="translate(801,393)" d="m0 0 3 2 1 3 4 2-5 2-7 1-11 10-5 4-9 12-7 15-2 6-1 15 3 17 2 5v6h-2l-5-12-2-12v-13l2-10 2-8-5 13-1-4 7-17 9-13 3-5 11-10 13-8z" fill="#EFBC74"/>
<path transform="translate(1120,629)" d="m0 0 3 3 9 12 10 11 12 17 6 10 19 10 7 6 1 4-4-2-15-10-10-4v5l-3-1-3-9-7-11v8l-4-4-14-22-4-6-3-13z" fill="#F1C877"/>
<path transform="translate(932,797)" d="m0 0h1v11l-2 11v5l6-10 3-6 5-1-3 9-11 26-11 19-3 1v-13l4-20h2l2-12 6-18z" fill="#D9852C"/>
<path transform="translate(968,677)" d="m0 0h1l-1 21-1 9-3 3v-2l-3 1-1-1-1-8-2 5-2 8-5 9-5 2-5 4-1 3 6-1v3l-3 1-3 5-4 3h-6l1-10 11-13 10-15 12-19z" fill="#F5D384"/>
<path transform="translate(1142,564)" d="m0 0 6 3 8 5 2 3 7 3 5 10 4 11v25l-3-1-5-14-14-27-10-16z" fill="#D9862E"/>
<path transform="translate(1195,543)" d="m0 0 9 2 12 6 7 6 7 10 4 11v6l-6-4-9-8-8-10-4-4 7 14-1 4-9-15-6-9-3-6z" fill="#F6D687"/>
<path transform="translate(843,670)" d="m0 0h5v6l-5 5-14 7-13 3h-24l-13-3v-2l15-3h17l5 1 1-1-5-1 4-2 20-7z" fill="#EFBB74"/>
<path transform="translate(1053,284)" d="m0 0h8l-12 6h-3v2h10v-2l9-1 7-3h15l30 1 11 1v1l-6 1 14 1 2 2-17 2h-6v-3h-8l-4 1h4l-1 4h-4l-2-1-1-1-28-1v-2l-12 1-16 3h-6l3-6 9-5z" fill="#EEB971"/>
<path transform="translate(1192,350)" d="m0 0h2l2 6 7 5 7 3 10 8 7 7 6 8 5 9 4 5 5 9 3 8-1 3-9-11-20-20-4-3v-2l8 2-21-21-11-9-1-4z" fill="#F6DFB0"/>
<path transform="translate(1011,642)" d="m0 0 1 3-1 3v29l-2 18-5 21-4 12h-1l-1-5v-31l4-11 3-27 1-7z" fill="#EAB065"/>
<path transform="translate(1227,401)" d="m0 0 5 3 7 7 9 12 4 3 1 8h2l3 18 5 20 5 16-1 3-8-17-11-30-5-12v-3l-3-1-5-12-9-13z" fill="#ECD0A0"/>
<path transform="translate(1101,664)" d="m0 0h2l9 14 7 13 6 8 4 9-1 4-7-2-16-15-6-7 1-5 1-13z" fill="#E9AE63"/>
<path transform="translate(1174,562)" d="m0 0 4 4 9 14 8 16 3 13-1 7h-2l-4-5v-2l-4-2-2-4-3-1-1 4-2-3-7-29h3l5 5-6-15z" fill="#F6D586"/>
<path transform="translate(1029,908)" d="m0 0 3 3 6 20 5 13v4h-26l1-5 9-28z" fill="#FBF7F0"/>
<path transform="translate(1263,586)" d="m0 0 4 2 17 17 5 3h2l2 6 6 3-1 4-4 3 2-6-15-4-11-7 4 5 17 10 2 3-2 1-13-5-10-9-4-6-2-6-1-11z" fill="#EAB165"/>
<path transform="translate(1032,700)" d="m0 0 4 2 7 10 2 9v13l-3 7-2-1-1-17h-2v13l-3-3-1-6-2 3-6 11-8 10-3 2 1-5 11-23 4-11 2-12z" fill="#EFBD74"/>
<path transform="translate(1094,619)" d="m0 0 4 4 9 22 8 10 6 12 4 12-4-2-12-12-9-11-6-10-2-6 2-5z" fill="#D9872E"/>
<path transform="translate(866,454)" d="m0 0h18l13 1 1 2-27 2-33 4-25 6-20 8-10 7-8 9-1 3 2 1-8 2 2-6 11-12 9-7 13-6 17-6 29-6z" fill="#F8E8CD"/>
<path transform="translate(1138,507)" d="m0 0h6l8 3 21 5 8 4 8 7 9 6 3 3v3l-4-1-11-8-8-4h-3l13 11 3 6-4-2-15-11-15-9-19-10z" fill="#D9852C"/>
<path transform="translate(1031,598)" d="m0 0h2l-3 12-8 11-6 7-8 7-5 5h-2l1-4 4-2 1-4 4-4-8 6-14 14h-3l1-5 7-10 5-5 10-8 14-11 5-5z" fill="#D9852C"/>
<path transform="translate(1170,377)" d="m0 0 13 1 13 4 7 4v2l-13 1-8 4-13 4h-5l1-3 13-5-6-2h-12l-19 3 3-3 7-3 5-1v-3z" fill="#F4D285"/>
<path transform="translate(1096,692)" d="m0 0 9 9 10 8 1 5-10-1-2-1v2l10 2h2l1 9-2 7-1-4h-2l-1 10-1 1v7l-3-2-1-11v-15l-2-1-1 3h-2l4 19v12l-4 1 2-4v-8l-6-27-1-10z" fill="#DA872F"/>
<path transform="translate(814,703)" d="m0 0v3l-3 4h6l-1 6-17 6-1 1h-8l-26-7v-1l10-1 10-2 12-3 16-5z" fill="#DB8A32"/>
<path transform="translate(1142,438)" d="m0 0h17l18 4 3 3-7 3-14 3h-16l-6-2 2-2-3-1h-5l2-4 4-3z" fill="#F7D887"/>
<path transform="translate(832,390)" d="m0 0 8 1 10 8 5 7 1 7-4 4-5-1-8-4-8-8-4-8 2-5z" fill="#0E0A08"/>
<path transform="translate(970,446)" d="m0 0h27l6 3 2 2-1 7-5 4-7 3-12 2h-31l1-2 30-4 12-2 6-4 1-2h-9l-11 1h-12v-1l14-3h-10z" fill="#F6DEAF"/>
<path transform="translate(969,623)" d="m0 0v3l-10 14-6 17-12 21-4 8h-1l1-11 3-13 6-10 4-7-8 6-8 9-2-1 8-11 7-7 14-11z" fill="#EBB369"/>
<path transform="translate(998,272)" d="m0 0h5l-4 4-4 2-1 2 4-1v2h5l-1 2-23 10-17 9-9 4-13 6-3-1 12-9 10-8 5-1 6-3 13-8 9-5 4-4z" fill="#F1CE98"/>
<path transform="translate(867,369)" d="m0 0 5 1-1 2 5 10 1 11-2-2-4-12-3-4 1 7 5 12 1 6-2 1 3 4-1 2-9-7-11-8 3-2-10-7 3-3 7-3 6 1-1-7h4z" fill="#D4832D"/>
<path transform="translate(1e3 595)" d="m0 0h3l-2 9-6 9h-2l-2 4-6 9-6 5-5 10-2-1 3-9-5 2 2-11 7-8 11-10 8-7z" fill="#D9852C"/>
<path transform="translate(911,605)" d="m0 0 5 1-6 7-11 7-6 4 4 3-1 3-6 1v2l-4 3-3 5-7 5-4-1-1-3h-6l1-3 4-1 2-4 4-3 1-5 21-8 6-4-4 1-1-2 1-2 6-3h2v-2z" fill="#EDB76E"/>
<path transform="translate(1037,622)" d="m0 0v3l-9 7-5 2-2 9-3 7v4l6-12 3 2 4 15 3 6v3l-6-2-6-1-1 1 1 9 2 2v4l-3-1-6-12v-21l4-8 2-6 5-6 7-2z" fill="#D9852C"/>
<path transform="translate(1145,624)" d="m0 0 4 1 5 5 7 8 10 18v5l-4-2-6-8 1 3 7 12 2 4-4-2-8-11-6-11-2-1-2 5h-1l-2-7v-11z" fill="#D9852C"/>
<path transform="translate(1104,517)" d="m0 0 7 1 12 7 10 9 7 8 3 5-1 3-10-6-8-5-9-5-5-5-5-7-3-1z" fill="#D9862D"/>
<path transform="translate(1054,459)" d="m0 0h11l12 1 33 1 9 1v2l-24 4h-19l-16-2-8-4v-2z" fill="#D9852C"/>
<path transform="translate(963,449)" d="m0 0h20l-2 2-8 2 19-1 3 2-35 3-38 4-25 5-10 3-3-2 11-5 8-2 14-2 13-2 26-2 7-1-50-1v-1l48-1z" fill="#ECB66D"/>
<path transform="translate(842,777)" d="m0 0 1 2-4 12-2 4h2v2l-8 7-10 9-13 8-21 6-3-1 5-3 14-6 11-8 5-4h2l2-4 5-5h3v-4h3l1-4h2v-5z" fill="#D8862E"/>
<path transform="translate(810,378)" d="m0 0h2v10h4l2 6 3 3 6 9 16 16 16 20v2h2l-1 3-4-2v-2h-2l-8-10-9-10-20-20-6-8-2-6-2 4-1-6 3-7z" fill="#F5DBA7"/>
<path transform="translate(1035,304)" d="m0 0h21l21 3 1 2-7 2h-7l1-3-6-1h-37l-9 2 1 2 13 1 4 2-4 3-4 2 1 1 15 2v1h-38l3-2 6-3 12-2h-23l1-3 13-6 8-2z" fill="#E5A455"/>
<path transform="translate(1248,465)" d="m0 0h2l8 17 9 21 2-3 3 12 8 20 3 10-1 3-9-14-7-16-6-14-9-27z" fill="#F6E0B3"/>
<path transform="translate(864,366)" d="m0 0 3 1-1 2h-7l3 6-7-1-1 4-10 4-13-1-9 3-6 5 1-5 8-6 3-3 10-4 7-1v-2l7-1z" fill="#F8DD8D"/>
<path transform="translate(906,451)" d="m0 0 60 1-3 2-20 2-22 2-8 2-4-1-27-1v-1l15-1-13-1-3-2h25z" fill="#D9852C"/>
<path transform="translate(1155,491)" d="m0 0 7 1 9 7 10 7 11 8 10 10 5 13-4-2-7-6-15-10v-2l9 1-8-5-7-4v-2l-4-2-4-3-5-5-8-4z" fill="#EAB165"/>
<path transform="translate(745,894)" d="m0 0h8l2 1 1 37-2 1-1-4-1-32h-7l-1 1v84l1 2 9 1v-19h2v17l-2 4h-12l-2-2 1-89z" fill="#F6DCAB"/>
<path transform="translate(915,575)" d="m0 0h2l1 6-2 4 3 3 9-1v5 3l-2-2v-4l-4 1v2l-4-1-1-1h-9l-10 8-4 4h-18l-3-2-6-1v-3h13v-2h14l3-2h6l2-4 5-7 1-5z" fill="#F5DBAC"/>
<path transform="translate(1048,735)" d="m0 0h3l6 9 8 6 3 1 1-2v4h-3v2l-4 1-6 8 2 1-3 4h-3v11l-2 3z" fill="#ECB66C"/>
<path transform="translate(1180,398)" d="m0 0h15l9 3 8 6 9 9 7 11 1 4-4-2-7-8-11-8-11-3 2-1v-2l-6-2-6-3-6-2z" fill="#EBB268"/>
<path transform="translate(1e3 646)" d="m0 0v3l-4 5h-2l-2 5 7-5-1 6-9 10-5 6-6 1-3-1v2h-2l1-6 6-11 8-8z" fill="#DB8A33"/>
<path transform="translate(1023,380)" d="m0 0h2l-2 9-7 14-7 8-8 5-6 2-7 1h-8l-9-2-6-4-6-5-9-13-1-5 5 5 8 10 7 6 9 3h15l10-4 9-8 8-16z" fill="#F3D4A1"/>
<path transform="translate(1140,357)" d="m0 0h9v2l-11 5-11 7-10 7-11 6-3-1 4-7 5-3 1-2-2-1 6-5 12-5z" fill="#F5DDAE"/>
<path transform="translate(955,712)" d="m0 0h1v6l-3 5 1 1 2 3-1 7-3 2h-3v2h-3v3l-3 2-7 2-7 8-9 7-3 1 1-4 8-7 7-8 7-5 2-5 3 1v-3l-6 1 1-4 7-5 3-1z" fill="#D9862D"/>
<path transform="translate(1248,528)" d="m0 0h2l4 9 2-3 3 12 2 7 4 2 9 13 2 7 4 1 1 4-9-6-10-14 1 5 7 14v2l-3-1-8-14-7-21z" fill="#D9862E"/>
<path transform="translate(1155,712)" d="m0 0 5 5 5 6 7 10 2 3h-2l-2 5-3 4-4-1-4-4-5-11-3-8-5-3v-1h6l7 7v2h2l-3-10h-2z" fill="#D9852C"/>
<path transform="translate(881,491)" d="m0 0 6 1 9 7 13 13 7 9 10 12 3 5-1 3-5-7h-2v-2l-3-1-7-9-1-3h-3l-4-2-9-9-3-5-5-5-5-4-1 3z" fill="#F8E5BA"/>
<path transform="translate(953,293)" d="m0 0h2v2l-9 6-9 8h-2l-2 4-7 8-6 8-5 6-1-3v-3l-3 1-1 3-4 4h-2l-2 4-5 7-1-3 7-11 11-11 9-6 12-11 2-4-2-1 12-6z" fill="#EAB167"/>
<path transform="translate(929,733)" d="m0 0 2 4-2 5 4 1-9 10-4 4h-2l-1 4 6-5 2 1v1l1 4-5 4-12 5-4-1 3-6 8-10 8-15z" fill="#DB8C35"/>
<path transform="translate(1253,622)" d="m0 0 8 1 11 3v1l-7-1v2l5 2 15 5 6 4-3 1-8-2v3l17 1 2 4-12-2h-6l-16-6-9-9z" fill="#EAB36A"/>
<path transform="translate(1137,524)" d="m0 0 6 2 13 9 6 10 4 13 2 13-3-3-9-17-12-17-5-6v-2h-2z" fill="#D9852C"/>
<path transform="translate(828,896)" d="m0 0h1l1 62 1 26h46l1-1 1-7h-37l-2-1v-31h1l1 29 1 1 37 1v11l-1 1h-50l-2-6z" fill="#F1CB90"/>
<path transform="translate(1147,295)" d="m0 0 4 1-2 4-15 4-8 1 3 1-1 4-1-2h-16v-2l12-4-12 1-19 4h-6l4-4-9-1 1-3 4 1 10 1v2l12-2h8l1-3 16 1v-2h7z" fill="#F0BE77"/>
<path transform="translate(1129,432)" d="m0 0h4l-4 8-10 6-16 6-15 3h-14l1-2 20-3 14-4 3-1h-9l-2-2 12-5z" fill="#E6A658"/>
<path transform="translate(1295,894)" d="m0 0 6 1v87h-1l-1-85-9-1v36l-1 2h-42l-1-1v-37h1l1 35 39 1 1-36z" fill="#EAB876"/>
<path transform="translate(999,780)" d="m0 0h7l-2 4-6 4-5 5-7 5 4 3-8 2-11 4-7-1 4-3 10-8 14-14 5 3h3l1-3z" fill="#D9862D"/>
<path transform="translate(872,464)" d="m0 0h5l-4 3-28 14-11 3-5 3-4-1 8-4h2l-1-3-9-1 4-3 29-7z" fill="#D9852D"/>
<path transform="translate(936,593)" d="m0 0 1 2-4 6-3 1v2l-5 4-3 4h-5l-3 1v2l-4 4-7 8-5 7-2 3v-5h-2l-1 3-3-4 5-2 1-2-5-2 5-4 13-8 5-5 5-1 6-5 8-6z" fill="#D9852C"/>
<path transform="translate(1069,479)" d="m0 0 17 2 44 1 2 2-5 2-15 2-2 1h-13l-13-4-9-2-6-3z" fill="#D9852C"/>
<path transform="translate(1120,629)" d="m0 0 3 3 9 12 1 2-2 1 15 21-1 3v7l-4-4-14-22-4-6-3-13z" fill="#D9852C"/>
<path transform="translate(1129,309)" d="m0 0 1 2 15 1 9 2 8 6 19 3 1 3 5 2-3 1-7-3h-8l-3 1h-16l-3-2 1-2 8-2-1-4h-10l-7-1-12-2 1-4z" fill="#FAECC6"/>
<path transform="translate(1053,284)" d="m0 0h8l-12 6h-3v2h10v-2l17-2h31l2 2-11 1-2 1h-9l12 1v1h-25v-2l-12 1-16 3h-6l3-6 9-5z" fill="#D6832B"/>
<path transform="translate(1025,777)" d="m0 0h1l-1 8-6 19-6 12-5 1v-9l1-7h2l1-6 3-8 3-1v4l6-12z" fill="#DC8E38"/>
<path transform="translate(957,338)" d="m0 0 2 1-4 4h-2l-2 4-11 13-8 6-12 4-3-1 13-8h-2l-11 5-3-1 16-9 11-6 11-9z" fill="#F4D59F"/>
<path transform="translate(1199,577)" d="m0 0 3 1 4 8 3 1 1 9-2 10h-2l-3-9h-2l-1 4-6-13v-8z" fill="#ECB46A"/>
<path transform="translate(965,325)" d="m0 0 4 1-13 8-15 6-2 7-7 5-4 1 1-3 6-5-4 1-12 9-5 3-2-1 5-5 8-7 16-10z" fill="#ECB66F"/>
<path transform="translate(846,438)" d="m0 0 5 4v2l-15 5-12 8-10 4-14 7-3-1 7-6 9-5 10-6 17-8z" fill="#F0C17D"/>
<path transform="translate(1192,450)" d="m0 0 5 1 9 6 3 1v2l5 1 1-2 14 15 3 5-1 2-7-6-14-8-8-2-6-7-3-6z" fill="#ECB973"/>
<path transform="translate(1155,394)" d="m0 0h4l-1 3-10 6-7 4-11 4h-2v-2l4-2-10 2h-7l1-2 20-8z" fill="#ECB76E"/>
<path transform="translate(1111,388)" d="m0 0h3l-2 4-6 8-8 4h-12l-10 2-4-1 21-10z" fill="#E9AC60"/>
<path transform="translate(1178,326)" d="m0 0 13 5 6 7-5 2v5l-4-3-15-5-1-3 2-1-8-3v-2l11-1z" fill="#F7DA8D"/>
<path transform="translate(955,621)" d="m0 0h2l-2 4-17 16-7 7-9 11-8 9-5 2-2-1v-6l4 1 5-3 4-6 5-5 3-6h2v-2l5-5 7-6 1-2 8-4z" fill="#EBB267"/>
<path transform="translate(1099,684)" d="m0 0 4 2 8 7 3 5v2h2v3h5 1l-6-7-4-4 4-1 5 2 6 10 2 5-1 4-7-2-16-15-6-7z" fill="#EBB367"/>
<path transform="translate(919,674)" d="m0 0 1 3-6 11-6 14-7 14-2 3h-2l1-7 5-13 1-4-5 1 3-5 5-4 5-5z" fill="#DD8F39"/>
<path transform="translate(1e3 473)" d="m0 0 33 2 14 2v2l-14 3h-16l-12-6-7-1z" fill="#D9852C"/>
<path transform="translate(1216,385)" d="m0 0 11 3 12 11 4 4 4 7 3 8-1 3-9-11-20-20-4-3z" fill="#F4DAAB"/>
<path transform="translate(1041,700)" d="m0 0 7 6 7 11 4 11 1 10-4-2-9-13-2-11-4-10z" fill="#F2CC7C"/>
<path transform="translate(1181,469)" d="m0 0 13 1 4 2v2l-2 1 10 4 9 7 1 3-8-1-8-2-8-6-2-4-9-4-5-1v-1z" fill="#F2CE8F"/>
<path transform="translate(1124,575)" d="m0 0 4 2 7 8 8 10 5 12 1 1-1-8 3 3 4 9 2 10v4l-4-2-8-13-8-18-9-12-4-5z" fill="#D8842B"/>
<path transform="translate(1103,432)" d="m0 0h6l-1 3-6 4-8 5-7 2h-24v-2l9-2 15-4z" fill="#E8AC61"/>
<path transform="translate(1038,282)" d="m0 0 4 1-1 2-5 2h-5v2l-18 4-11 4-13 2 5-5 14-6 18-4 3 1z" fill="#D9852C"/>
<path transform="translate(888,320)" d="m0 0 1 3-3 5-3 1-2-1-3 9-9 11-3 1-6-1-4 4v-5h2l2-5h2l1-4 3-1v9h2l-1-3 4-4 2-9 3-7 4-2v5h6l1-5z" fill="#D4832C"/>
<path transform="translate(845,699)" d="m0 0 1 2-1 2h-2v2l3 2-6 2-2 5-8 11-12 13-7 7-5 3h-5l2-1v-3l7-3 1-2h2l1-3 4-4 9-11 7-8 4-7 4-4z" fill="#E8AF65"/>
<path transform="translate(1130,342)" d="m0 0h26l10 2-3 3-10-1h-24l-15 6-6 3-11 1 1-3 7-2 10-5z" fill="#D9852C"/>
<path transform="translate(1137,462)" d="m0 0h25l9 2v2l-6 2-7 1h-18l-9-3v-2z" fill="#EEB970"/>
<path transform="translate(1221,601)" d="m0 0 5 2 7 9 4 9v11l-5-3-6-9-5-16z" fill="#DD913B"/>
<path transform="translate(1130,416)" d="m0 0 3 1-9 6-11 5-20 6-10 2h-10l2-2 36-11 17-6z" fill="#F3D5A1"/>
<path transform="translate(871,364)" d="m0 0 4 2 6 11 1 6-3-3-4-6-5-4-3-1v2h-4l2 5-1 3-6-1-9 4 10 8v1h-6l1 3-5-2v-4l-5-3-1-3 7-4h4l1-4h6l-2-5 7-1 4-1h3l-2-1z" fill="#EFBD76"/>
<path transform="translate(943,716)" d="m0 0 6 1-1 3h-2l3 3-4 1-5 4-1 3 6-1v3l-3 1-3 5-4 3h-6l1-10 11-13z" fill="#EBB267"/>
<path transform="translate(1107,291)" d="m0 0h9l-1 4 7-1 4 4-9 1-1 2-14 2h-6v-2h-11l1-2 17-3 1 1 2-1v-2l-4-1z" fill="#F1C682"/>
<path transform="translate(1252,522)" d="m0 0 4 4 9 15 3 6 1 12-2 1-2-5-5-2-3-9-2-10-3-9z" fill="#F6D78C"/>
<path transform="translate(836,696)" d="m0 0 3 1-2 4-8 7-10 7-3-1v-3h-6l6-9 6-4 2 1-6 4h3z" fill="#EEBA72"/>
<path transform="translate(1e3 326)" d="m0 0 2 1-9 3h-2v2l-12 5h-2l-1 3-3 3-1 2 3 1-5 2-7 2-16 8-3-1 9-8 13-8 19-9 4-3z" fill="#E9AE62"/>
<path transform="translate(995,288)" d="m0 0 1 3-24 13-20 10-5 2v-2l9-7 17-10 16-7z" fill="#EFC88D"/>
<path transform="translate(970,446)" d="m0 0h27l6 3 2 2-1 3h-3l-11-1-11 1h-12v-1l14-3h-10z" fill="#F5D486"/>
<path transform="translate(1263,586)" d="m0 0 4 2-1 3 1 4-2 1 2 6 5 5h-3l7 6 16 10v3l-14-5-10-9-4-6-2-6-1-11z" fill="#DB8B34"/>
<path transform="translate(1045,712)" d="m0 0h1l1 9-1 15-4 13-3 5-2-3-1-6-1 11h-1l-1-13-4 3 2-4 4-7h1l1-12h2l2 17 2-3 1-3v-13l-1-8z" fill="#DB8B34"/>
<path transform="translate(1167,452)" d="m0 0h12l11 4 7 4v2h-7l-31-5 1-3z" fill="#F3D39C"/>
<path transform="translate(919,310)" d="m0 0 2 1-3 5-8 7-4 4h-2l-2 5-8 11-5 9h-2l1-6 6-12 8-10 9-9z" fill="#F2D39F"/>
<path transform="translate(1030,714)" d="m0 0h3l3 3-1 4-7 15-9 13-5 4 1-5 11-23z" fill="#EEC16F"/>
<path transform="translate(1222,585)" d="m0 0 5 2 10 9 4 11 2 7-1 4-6-8v-2h-2l-8-13-4-7z" fill="#D9852C"/>
<path transform="translate(1165,489)" d="m0 0h9l10 4 12 11 5 7v2l-4-2-14-10-14-8-4-2z" fill="#EDB96F"/>
<path transform="translate(994,271)" d="m0 0h11v2h-7l-4 2-4 4-14 8-7 5-5 2h-3l5-5 10-7 5-3 1-2-10 2-6 4h-2v-2l4-2 1-4h5l4-1 1 1 14-1z" fill="#F3D5A2"/>
<path transform="translate(1011,642)" d="m0 0 1 3-1 3v29l-1 12h-1l-1-14-4 1-1 3 1-19 2-13z" fill="#EBB166"/>
<path transform="translate(1007,381)" d="m0 0 3 1 1 2v7l-4 8-5 5-7 5-9 2-1-4 8-3 5-5 6-7z" fill="#F6DDAD"/>
<path transform="translate(1105,714)" d="m0 0 9 2h2l1 9-2 7-1-4h-2l-1 10-1 1v7l-3-2-1-11v-15z" fill="#C77A28"/>
<path transform="translate(1e3 583)" d="m0 0 1 3-7 9-10 8-10 6-16 6h-7v-2l17-6 10-5 12-9 4-2 2-4z" fill="#D9852C"/>
<path transform="translate(1104,715)" d="m0 0 3 3v21l2 6v-6l2-7 1-4h2l1 6-4 13-4 5-4-1h2l-2-18-2-9v-4l2-1z" fill="#EFBE78"/>
<path transform="translate(929,618)" d="m0 0 2 1v5l-5 3-2 9-16 8-4 1 5-5 10-7 1-3-8 1 1-3 9-7z" fill="#EEBA72"/>
<path transform="translate(866,454)" d="m0 0h18l13 1 1 2-27 2-18 2h-8v-1l4-1-6-1v-1z" fill="#F3D7A4"/>
<path transform="translate(1258,502)" d="m0 0h2l3 8h2l7 17 6 11 6 8v4l-3-1-6-10-3-6-5-2-6-16z" fill="#EBBB7B"/>
<path transform="translate(1146,511)" d="m0 0h5l8 4 4 4 8 5v2l6 1 10 8 4 6h-3l-13-10-18-11-12-6z" fill="#E9AE63"/>
<path transform="translate(808,384)" d="m0 0h1l3 11 9 11 24 24 7 9-1 2-19-19-8-7-11-13-5-9z" fill="#0A0707"/>
<path transform="translate(1030,326)" d="m0 0h12l17 3 1 3h-22v2l-12-2-13-1-1 2v-2l-5-1v-1h19z" fill="#E7A95B"/>
<path transform="translate(986,577)" d="m0 0h2l1 2 3-2v6l-6 8-9 5-2-1v-3h-3l2-4 8-7z" fill="#D9852C"/>
<path transform="translate(793,400)" d="m0 0 4 1-11 8h-2v2l-5 5-6 7-8 14-3 1-5 13-1-4 7-17 10-14 7-7 10-7z" fill="#D5822B"/>
<path transform="translate(1155,491)" d="m0 0 7 1 9 7 20 14 1 4-4-1-13-7v-2l-4-2-4-3-5-5-8-4z" fill="#EAB064"/>
<path transform="translate(1111,319)" d="m0 0h12l2 2 12 1-2 1v2l5 1h26l3-1h8v3h-11v2l8 2 1 2h-3l-1 2-2-2-5-4-2-1-23-1-8-1-2-2-20-4z" fill="#D9852C"/>
<path transform="translate(894,632)" d="m0 0h2v7l-8 15 1 1 11-6h2l-1 4-16 8-1-2 1-4-2-3 4-7 3-9z" fill="#E5A455"/>
<path transform="translate(794,683)" d="m0 0h17l5 1h9l2 3-7 2h-26l4-2 4 1v-2l-21 1v-1z" fill="#D9852C"/>
<path transform="translate(1265,626)" d="m0 0 11 1 12 6 7 6 7 1-1 2h-2l-1 2-5-1-13-2v-3l10 1-10-5-10-3-3-1v-2h-2z" fill="#F1C88A"/>
<path transform="translate(1267,550)" d="m0 0h2l8 14 5-1 1-3 8 7-2 1-10-3 3 9-2 4-1-2-3-1-5-10-3-4v-7z" fill="#F7E1B3"/>
<path transform="translate(1066,753)" d="m0 0h3l-2 6-7 13-6 7-1 2-2-1 1-11 4-2v-3l2-4 5-6 3 1z" fill="#F0BF78"/>
<path transform="translate(1124,661)" d="m0 0 5 5 10 16 4 10-1 4-8-10-9-17z" fill="#E9AF64"/>
<path transform="translate(1021,338)" d="m0 0 11 1 16 3h19l1 3-12 3-10 3 1-3 4-2-4-1-13-1-11-4z" fill="#D9852C"/>
<path transform="translate(1079,462)" d="m0 0h40v2l-17 3h-16l-6-1v-2l-2-1z" fill="#ECB56B"/>
<path transform="translate(1042,778)" d="m0 0h2l2 11-2 1-2-6-2 12-5 5-6 4-1-2 5-14 2-2-1-4h5z" fill="#DB8C35"/>
<path transform="translate(1296,627)" d="m0 0 1 2 5 2 14 6 5 2-1 2-3 1h-13l2-2-9-5-1-3h-6v-2l6-1z" fill="#F7E1B4"/>
<path transform="translate(882,468)" d="m0 0h5l-3 3-2 1 13-1 12-2h6l-4 2-1 2h5v1l-17 3h-5l-3-2-7 1-9-1 4-4z" fill="#ECBA69"/>
<path transform="translate(1221,531)" d="m0 0 5 5 3 5 4 4v-9l2 1 3 7-1 5v8l-3-4-1-4-1 1-1 7-2-2-2-10h-2l-1 2-3-11z" fill="#DD8F39"/>
<path transform="translate(1164,378)" d="m0 0h6l-1 2-3 1 11 1-3 3 1 3-3-1h-12l-19 3 3-3 7-3 5-1v-3z" fill="#EFBD77"/>
<path transform="translate(1e3 646)" d="m0 0v3l-4 5-4 2-3 4h-2l-2 4-7 8-1 3h-2v3h-2l1-6 6-11 8-8z" fill="#F1C577"/>
<path transform="translate(1096,381)" d="m0 0 1 3-7 7-11 7-11 3-4-1 10-6 14-9z" fill="#EAB065"/>
<path transform="translate(927,333)" d="m0 0 1 2-8 11-8 7-7 9-5 6h-2l1-4 3-6 9-10 6-5 5-5z" fill="#F2D29D"/>
<path transform="translate(1048,735)" d="m0 0h3l2 5-2 1v25l3-2v-8l3-5 4 1 1 3-6 9 2 1-3 4h-3v11l-2 3z" fill="#D9852C"/>
<path transform="translate(1160,422)" d="m0 0h18l3 2-9 2-9 3-15 3h-7l3-3 6-2 7-1-1-2z" fill="#DE923D"/>
<path transform="translate(953,293)" d="m0 0h2v2l-9 6-9 8h-2l-2 4-7 8-2 3-4 1 1-4 15-16 1-3-2-1 12-6z" fill="#EDC184"/>
<path transform="translate(1248,528)" d="m0 0h2l4 9v7h2l2 4 1 10 1 5h2l8 16v2l-3-1-8-14-7-21z" fill="#EBB56E"/>
<path transform="translate(1066,430)" d="m0 0h4l-1 3-10 5-4 1h-19v-3l21-4z" fill="#EFBE79"/>
<path transform="translate(854,731)" d="m0 0h2l-1 5-4 6-4 7-10 10-6 5 1 2h-6l3-5 11-11 13-17z" fill="#E9AD60"/>
<path transform="translate(956,696)" d="m0 0 2 4-3 13-5 9-5-1 1-2 2-1h-4l1-5z" fill="#F5D284"/>
<path transform="translate(1121,609)" d="m0 0 4 4 13 18 3 5 1 4v7l-4-5-12-20-5-11z" fill="#D9852C"/>
<path transform="translate(1023,380)" d="m0 0h2l-2 9-7 14-7 8-8 5h-7l3-1v-2l10-6 7-8 6-13z" fill="#F5DCAD"/>
<path transform="translate(754,943)" d="m0 0h43l-1 2h-40l-2 40-2-1 1-32z" fill="#F2D3A0"/>
<path transform="translate(810,378)" d="m0 0h2v10h4l2 6 3 3 4 6-1 2-5-3-1 2-7-9-2-6-2 4-1-6 3-7z" fill="#F4CF7F"/>
<path transform="translate(767,748)" d="m0 0h7v2l-6 3-16 3-11-1-1-1-10-1v-1l18-1z" fill="#0A0707"/>
<path transform="translate(1155,671)" d="m0 0 4 2 14 8 16 7 1 2-8-1-16-5-5-3-6-8z" fill="#F3D5A2"/>
<path transform="translate(759,449)" d="m0 0 3 2v14l3 17 2 5v6h-2l-5-12-2-12v-13z" fill="#EFC074"/>
<path transform="translate(892,326)" d="m0 0h5l-7 11-11 20h-2l1-8 7-14z" fill="#ECBA73"/>
<path transform="translate(994,301)" d="m0 0h9l-5 4-12 7h-2v4l-15 5-8 2v-3l11-5 10-4 10-6v-3z" fill="#EBB56D"/>
<path transform="translate(884,461)" d="m0 0h5l-2 3-19 9-18 10-2-1 2-3h3l1-3 12-7 9-4h2v-2z" fill="#EEBC70"/>
<path transform="translate(1157,679)" d="m0 0 6 5 16 8 7 6 1 4-4-2-15-10-10-4v5l-3-1-2-9 4 1z" fill="#DB8B33"/>
<path transform="translate(1183,593)" d="m0 0 4 4 4 6 7 6-1 7h-2l-4-5v-2l-4-2-2-4-3-1-1 4-2-3-1-7 5 1z" fill="#D9852D"/>
<path transform="translate(838,458)" d="m0 0h16l-3 2h-6v2l-21 4-9 2-4-3 17-5z" fill="#F6E5C9"/>
<path transform="translate(1018,758)" d="m0 0 4 1-1 5-4 4-5 4-2 4v3l-4 1-2-1v-2l3-1 1-2-6 1 3-6 5-3 7-6z" fill="#B57028"/>
<path transform="translate(1116,523)" d="m0 0 8 3 8 7 8 9-1 4-14-11-7-8-2-1z" fill="#ECB56B"/>
<path transform="translate(1054,318)" d="m0 0h19l7 1v2l2 1h-6v2h-8l-9-1-2 1h-13v-1l10-2z" fill="#ECB86E"/>
<path transform="translate(1008,674)" d="m0 0h1v16l-5 5h-2v2h-2l1-12 3-9z" fill="#F7D98A"/>
<path transform="translate(1163,623)" d="m0 0 3 1 5 6v2l3 1 7 10 10 15-1 3-5-6v-2l-4-2-18-27z" fill="#D9852C"/>
<path transform="translate(943,656)" d="m0 0 2 2v3l2 1-1 7-9 17h-1l1-11 3-13z" fill="#DD8F39"/>
<path transform="translate(955,660)" d="m0 0 1 3-4 11-9 14 1 5-5-2 2-8 11-20z" fill="#E8AB5E"/>
<path transform="translate(1012,419)" d="m0 0 4 1-2 2-20 5h-17l-6-2v-1l12-1h11l10-3z" fill="#E6A95E"/>
<path transform="translate(1053,284)" d="m0 0h8l-12 6h-3v2h10v-2h9v2l-22 4h-6l3-6 9-5z" fill="#EDB86E"/>
<path transform="translate(1138,514)" d="m0 0 6 1 12 6 10 6 4 3v2l2 1-2 1-19-10-12-8z" fill="#D9852C"/>
<path transform="translate(1011,619)" d="m0 0 1 3-8 8-7 8-8 8h-3l1-5 4-6 15-10z" fill="#EBB268"/>
<path transform="translate(1049,312)" d="m0 0h7v1l-6 2 9 1h15l3-3 4-1h7l-4 2-6 1 4 2 4 5-2 1h-8l4-2v-2l-27-1-8-2v-3z" fill="#D9862E"/>
<path transform="translate(1205,497)" d="m0 0 5 2 15 15 5 6v2h-2l-3-3-4-1-3-3-2-3-2 1-6-11-3-3z" fill="#EBB56C"/>
<path transform="translate(1008,325)" d="m0 0h25l-4 3-3 2h-17v1h-7l-1-3z" fill="#EBB369"/>
<path transform="translate(1108,287)" d="m0 0h9l11 1v1l-6 1 14 1 2 2-17 2h-6v-3h-4v-2h-3z" fill="#EBB369"/>
<path transform="translate(1051,701)" d="m0 0 5 5 8 14 2 10h-3l-4-5-5-14z" fill="#EDBD6D"/>
<path transform="translate(1101,679)" d="m0 0 1 3 4 2 1 2 10 3 2 3h-6l5 5 6 8-2 1-1-2-5-1v-3h-2l-6-9-8-7z" fill="#D9852C"/>
<path transform="translate(1212,621)" d="m0 0h2l8 10 6 12 1 5h-3l-6-9-8-16z" fill="#E9AE62"/>
<path transform="translate(917,458)" d="m0 0 13 1v1l-20 3-19 5-4 1-3-2 11-5 8-2z" fill="#E8AB5E"/>
<path transform="translate(1184,906)" d="m0 0h1l1 79 12-1-2 3h-11l-1-1z" fill="#F5DDAE"/>
<path transform="translate(948,684)" d="m0 0 1 4-4 12-2 4-6 1 2-4 1-3-6 8h-2l1-5 8-11 2 2 3-5z" fill="#F1CD94"/>
<path transform="translate(882,653)" d="m0 0 4 1-1 5-3 6-5 7-7 2 2-6z" fill="#EDB96C"/>
<path transform="translate(1137,439)" d="m0 0 4 1-2 2 4 1v2l12 1-2 2h-5v2h11v1h-16l-6-2 2-2-3-1h-5l2-4z" fill="#D9852C"/>
<path transform="translate(828,896)" d="m0 0h1l1 62 1 27h-3l-1-4z" fill="#F3D6A5"/>
<path transform="translate(1180,410)" d="m0 0h8l9 3 12 7 2 3-6-1-24-10z" fill="#E7A85B"/>
<path transform="translate(943,734)" d="m0 0h1v7l-9 5-6 7-9 7-3 1 1-4 8-7 7-8 7-5z" fill="#0A0707"/>
<path transform="translate(1268,531)" d="m0 0 5 2 7 13 4 4 1-3 1 5-2 3-4-1v2l-4-2-3-6h2v2l4 1-11-18z" fill="#F4D8A6"/>
<path transform="translate(1168,516)" d="m0 0 6 1 11 6 13 9 3 3v3l-4-1-11-8-5-3v-2l-5-2-3-1-3-3z" fill="#DB8A33"/>
<path transform="translate(1032,700)" d="m0 0 4 2 7 10 1 2v9l-1 2h-2l-5-16-4 3z" fill="#F7D98D"/>
<path transform="translate(779,686)" d="m0 0h23v2h18l9-1-4 2-9 2h-24l-13-3z" fill="#FAEBC3"/>
<path transform="translate(998,272)" d="m0 0h5l-4 4-6 3 1 3-20 9-7 3v-2l16-10 9-5 4-4z" fill="#0A0707"/>
<path transform="translate(818,490)" d="m0 0h4v6l-3 1h-11l-3-1h-29v-1l27-2 12-2z" fill="#F7E3B8"/>
<path transform="translate(1022,613)" d="m0 0 2 1v5l-8 9-8 7-5 5h-2l1-4 4-2 1-4 5-3 7-11z" fill="#E9AE64"/>
<path transform="translate(810,397)" d="m0 0 3 3 8 10 9 10 3 2v3l-4-1-10-9-8-11z" fill="#EAB362"/>
<path transform="translate(1058,297)" d="m0 0h12l5 1-1 2-10 2h-16l-4-1v-2l2-1z" fill="#F0BE77"/>
<path transform="translate(1288,944)" d="m0 0h2l1 40h8l2-2v4l-1 1h-11l-1-1z" fill="#F1CD95"/>
<path transform="translate(1014,599)" d="m0 0 1 3-6 10-10 7-4 2h-3l2-4 14-12 5-5z" fill="#E4A050"/>
<path transform="translate(796,896)" d="m0 0h2v34l-1 4h-42v-1l38-1 2-1z" fill="#EDBE7E"/>
<path transform="translate(934,354)" d="m0 0 2 1-3 6v2l2 1-8 4-10 2 3-3 10-6h-2l-11 5-3-1 16-9z" fill="#E4A152"/>
<path transform="translate(1e3 296)" d="m0 0h2v2l-6 2-10 5-12 4-3-1 3-3 7-4 3-2z" fill="#EDC184"/>
<path transform="translate(805,400)" d="m0 0 5 1 8 11 2 4-5-1-12-9 1-5z" fill="#0A0707"/>
<path transform="translate(1146,717)" d="m0 0h6l5 5 5 10-1 6 2 4-2 1-7-14-3-8-5-3z" fill="#EDB76E"/>
<path transform="translate(965,325)" d="m0 0 4 1-13 8-13 5-4-1v-2z" fill="#F1CD95"/>
<path transform="translate(1020,285)" d="m0 0h7l-3 3-22 7h-6v-2l16-6z" fill="#F3CE8F"/>
<path transform="translate(1181,469)" d="m0 0 13 1 4 2v2l-2 1 10 4 3 3-6-1v-2l-13-1v-2l-9-4-5-1v-1z" fill="#D9872E"/>
<path transform="translate(775,419)" d="m0 0h2l-1 4-8 14-5 13-3 4v-8l3-9h2l2-6z" fill="#F4D49E"/>
<path transform="translate(1059,396)" d="m0 0 2 1-8 6-8 4-15 5-3 2-11 1 3-3 13-3 17-8z" fill="#E5A457"/>
<path transform="translate(1177,629)" d="m0 0 3 1 6 9 8 10 2 6-7-6-5-5-6-7z" fill="#D9852C"/>
<path transform="translate(1269,610)" d="m0 0 14 7 10 7-2 2-13-5-9-8z" fill="#E8AB5F"/>
<path transform="translate(1117,592)" d="m0 0 4 2 9 12 5 11-1 3-8-11-7-11z" fill="#D9852C"/>
<path transform="translate(1137,462)" d="m0 0h25v1l-21 1-2 1 5 1 21 1v1l-7 1h-18l-9-3v-2z" fill="#D9852C"/>
<path transform="translate(1091,406)" d="m0 0v3l-12 6-3 1h-15l1-2 17-4z" fill="#F1CA8E"/>
<path transform="translate(1140,366)" d="m0 0 3 1-2 1 14-1v1l-12 2 3 2-4 4-6 2h-7l4-4 3-1-2-1v-2z" fill="#D9862D"/>
<path transform="translate(1156,477)" d="m0 0 28 2 4 2-3 2h-12l-10-2-7-3z" fill="#D9852C"/>
<path transform="translate(1160,358)" d="m0 0h8l10 3v3l2 1h-16l1-3-8-1-1-2z" fill="#F2C879"/>
<path transform="translate(909,690)" d="m0 0 1 2-2 3-1 10-6 11-2 3h-2l1-7 5-13h2l1-5z" fill="#E8AA5D"/>
<path transform="translate(858,397)" d="m0 0 4 2 7 7-1 3-5-2-2 5h-2v4l-4 1v-10l2 1 3-5v-2l-2-1z" fill="#ECB76C"/>
<path transform="translate(1159,345)" d="m0 0h11l21 7 1-2v6l-9-3-19-5-5-2z" fill="#EEC487"/>
<path transform="translate(1173,433)" d="m0 0h16l12 3 4 3h-5v-2h-6l-7-2 1 3-1 2-4 1-10-7z" fill="#EBB166"/>
<path transform="translate(850,392)" d="m0 0 8 4v4l3 1-1 6-3 3-7-10 1-2z" fill="#F5D383"/>
<path transform="translate(1181,586)" d="m0 0 3 1 3 3 1 8h2l3 4-1 3-5-6-3-5-1 3-6-1v-5l1-3z" fill="#EFBD75"/>
<path transform="translate(1102,426)" d="m0 0h3v2l-5 2-1 2-16 4h-10l2-2z" fill="#E4A04F"/>
<path transform="translate(1123,362)" d="m0 0 3 1h-2l-1 3-2 2-4 5h-3l-2 4-4 2v2l2 1-4 2-3-1 4-7 5-3 1-2-2-1 6-5z" fill="#DA8932"/>
<path transform="translate(745,894)" d="m0 0h8l2 1 1 37-2 1-1-4-1-32h-7l-2 1v-3z" fill="#EDC58C"/>
<path transform="translate(1099,684)" d="m0 0 4 2 8 7 3 5v2h2v3l-4-1-11-11-2-3z" fill="#EEBB70"/>
<path transform="translate(1264,630)" d="m0 0 16 3 10 5 1 2-13-1-9-4z" fill="#0A0707"/>
<path transform="translate(1226,408)" d="m0 0 5 4 7 12 6 15-1 2-10-17-7-14z" fill="#EDC081"/>
<path transform="translate(814,727)" d="m0 0 3 1-11 11-5 3-12 3-1-2 7-3 8-6 10-5z" fill="#EBB368"/>
<path transform="translate(1101,482)" d="m0 0h29l2 2-5 2h-14l-12-3z" fill="#E8AB5E"/>
<path transform="translate(888,320)" d="m0 0 1 3-3 5-3 1-2-1-1 5-6 6-1-5 2-4v-6l3-3 2 1v4h6l1-5z" fill="#ECB76E"/>
<path transform="translate(1025,490)" d="m0 0 9 2 9 3v3l-11 1-6-4-2-4z" fill="#D9852C"/>
<path transform="translate(1192,450)" d="m0 0 5 1 9 6 3 1v2l4 1v3h2v2l-5-2-6-5-3-1 1 5-6-5-3-6z" fill="#EDB96F"/>
<path transform="translate(843,424)" d="m0 0 5 5 7 8 4 5v2h2l-1 3-4-2v-2h-2l-8-10-6-8z" fill="#F0C177"/>
<path transform="translate(847,650)" d="m0 0 4 1 1 6-6 1-9 4h-5l4-4 7-6z" fill="#F8E7BE"/>
<path transform="translate(818,454)" d="m0 0h2l-1 5-19 9-3-1 7-6 9-5z" fill="#F2D19C"/>
<path transform="translate(1082,299)" d="m0 0 4 1 10 1v2l20-3 3 1-1 1-22 4-10 1 4-4-9-1z" fill="#D9852C"/>
<path transform="translate(1011,642)" d="m0 0 1 3-1 3-1 18-3-4v-3l-1 2-1 11h-1v-12l2-13z" fill="#D9852C"/>
<path transform="translate(885,474)" d="m0 0 9 1-3 2-13 2-12 2v-2l-2-1 6-3h12z" fill="#F6E0B4"/>
<path transform="translate(1268,592)" d="m0 0 4 1 5 5 3 6-1 3h-5l-3-4-3-8z" fill="#F7DA8B"/>
<path transform="translate(1165,489)" d="m0 0h9l10 4 4 4-6-1v-2h-2v4l-5-2-10-5z" fill="#E8AB5E"/>
<path transform="translate(842,777)" d="m0 0 1 2-4 12-13 11-5 2 6-7 4-1v-4h3l1-4h2v-5z" fill="#EDBC78"/>
<path transform="translate(728,750)" d="m0 0h27v1l-15 2 1 2h-11l-7-1v-3z" fill="#EBBB7C"/>
<path transform="translate(1130,646)" d="m0 0 5 1 9 11 3 4-1 2-3 2-7-11-6-8z" fill="#EBB369"/>
<path transform="translate(1178,388)" d="m0 0h9l-2 4-16 5h-5l1-3 13-5z" fill="#EDBB6C"/>
<path transform="translate(1111,319)" d="m0 0h12l2 2 12 1-2 1v2l4 2h-8l-2-2-20-4z" fill="#DA8830"/>
<path transform="translate(955,712)" d="m0 0h1v6l-4 6-4 5-9 2 1-4 7-5 3-1z" fill="#0A0707"/>
<path transform="translate(841,385)" d="m0 0 5 2 3 2 3 10-4-1-8-6-3-2 3-3z" fill="#F4D8A6"/>
<path transform="translate(943,730)" d="m0 0h2v3l-3 1-3 5-4 3h-6l1-5 1-2 6-2z" fill="#EDB76F"/>
<path transform="translate(1029,476)" d="m0 0h14l6 1v2l-7 2h-11l-4-2v-2z" fill="#E7A95C"/>
<path transform="translate(911,605)" d="m0 0 5 1-6 7-11 7-2-1 7-5-4 1-1-2 1-2 6-3h2v-2z" fill="#F0C483"/>
<path transform="translate(1173,504)" d="m0 0 10 3 8 6 1 4-4-1-13-7v-2h-2z" fill="#F0C576"/>
<path transform="translate(1132,657)" d="m0 0 4 1 7 10v3h2v7l-4-4-9-14z" fill="#EAB064"/>
<path transform="translate(1103,448)" d="m0 0 2 1 1 2-18 4h-14l1-2 20-3z" fill="#DD913C"/>
<path transform="translate(1090,440)" d="m0 0 4 1-5 1 5 1-3 2-4 1h-24v-2l9-2 9 1z" fill="#D9852C"/>
<path transform="translate(1069,613)" d="m0 0 3 2 2 6v10l-3 7-2-1z" fill="#D9852C"/>
<path transform="translate(1178,326)" d="m0 0 2 2-3 3 2 2-1 2h2l3 3h2v2l-9-2-4-2v-2l2-1-8-3v-2l11-1z" fill="#EEBC75"/>
<path transform="translate(1266,636)" d="m0 0 9 1 5 1v3l17 1 2 4-12-2h-6l-8-3-7-3z" fill="#EEC080"/>
<path transform="translate(1222,566)" d="m0 0h2l1 2 3 1 2-2 4 11v6l-6-4-1-2 2-1-4-5z" fill="#E9AD61"/>
<path transform="translate(1169,526)" d="m0 0 8 1 10 8 4 6h-3l-13-10-6-4z" fill="#E4A050"/>
<path transform="translate(952,280)" d="m0 0 8 1-2 4 2 1-11 7-6 1 5-6 7-5h-5z" fill="#F4D8A6"/>
<path transform="translate(856,693)" d="m0 0 4 1-3 6 4-2v3l3 2-10 1-4-2v-3l-3-3h5l4 3v-3l-2-1z" fill="#BD7A31"/>
<path transform="translate(1067,421)" d="m0 0h7l-1 3-23 6-3-1 14-7z" fill="#D9852C"/>
<path transform="translate(1222,531)" d="m0 0 7 2 5 1v13l-3-3v-2l-4-2-2-4-3-2z" fill="#F0BE77"/>
<path transform="translate(909,509)" d="m0 0 4 1 11 9 4 5v2l-5-2-14-13z" fill="#D9852C"/>
<path transform="translate(1156,408)" d="m0 0h7l-2 3-18 7-4-1 9-6z" fill="#E5A353"/>
<path transform="translate(1136,403)" d="m0 0h7l-2 4-11 4h-2v-2l4-2-10 2h-7l1-2 12-2z" fill="#D9852C"/>
<path transform="translate(910,583)" d="m0 0 5 1 4 4 9-1v5 3l-2-2v-4l-4 1v2l-4-1-1-1h-9-3l4-5z" fill="#E9AD61"/>
<path transform="translate(825,386)" d="m0 0 2 1-5 6 6-1 1 7 4 6v2l-4-2-4-5-6-7 2-4z" fill="#F2C981"/>
<path transform="translate(1007,381)" d="m0 0 3 1 1 2v7l-3 7-2-4-7 7v-3l5-6z" fill="#F5D488"/>
<path transform="translate(814,700)" d="m0 0m-3 1 5 1-4 3-16 5-6 2-4-1 21-9z" fill="#F5DBAB"/>
<path transform="translate(1242,480)" d="m0 0 4 4 5 12 3 12-1 4-5-12-4-14z" fill="#F3D5A2"/>
<path transform="translate(1e3 768)" d="m0 0 1 2 2 1-3 4 6-1-1 3h-3v2l2 1-4 1-7-2 2-4z" fill="#DF9542"/>
<path transform="translate(776,713)" d="m0 0h6l-4 1v2l7 1-1 4-17-4-3-2 10-1z" fill="#F0C07B"/>
<path transform="translate(1102,702)" d="m0 0 5 2 6 3 2 2v3h-8l-4-4z" fill="#ECB66D"/>
<path transform="translate(808,466)" d="m0 0h8l-3 3-18 7h-2l1-4z" fill="#F8E9CF"/>
<path transform="translate(1142,438)" d="m0 0h17l11 2v1h-25v4h-2v-2l-5-1z" fill="#E8AA5D"/>
<path transform="translate(1166,404)" d="m0 0h13l13 3 1 2h-9l-14-2-5-1z" fill="#DE913C"/>
<path transform="translate(995,370)" d="m0 0 7 3v4l-8 2-4-3 1-5z" fill="#F7E5C8"/>
<path transform="translate(977,796)" d="m0 0h2l2 5-4 4-9 2-4-2 7-4z" fill="#EBB368"/>
<path transform="translate(1111,577)" d="m0 0 4 2 8 9 10 14 3 6-1 2-7-10-8-11-7-9z" fill="#D9852C"/>
<path transform="translate(985,725)" d="m0 0h2l2 4v5l-5 1-4-1-1 4-4 1 4-6z" fill="#E8AB5E"/>
<path transform="translate(963,463)" d="m0 0h11l1 3-1 1h-25l1-2z" fill="#F8E5B9"/>
<path transform="translate(998,371)" d="m0 0 5 1h3 3l2 6v6l-1-2h-2l-2 4-1-4 1-4-4-2v-3z" fill="#D9852C"/>
<path transform="translate(1010,318)" d="m0 0h6l-1 2 20 1 4 2h-38l3-2z" fill="#DC8E38"/>
<path transform="translate(914,757)" d="m0 0h2v5l-3 3 2 2v2l-9 2-1-2 4-6z" fill="#E29C4A"/>
<path transform="translate(902,695)" d="m0 0h2l-1 7-7 17-2 3-2-1 7-19z" fill="#0A0707"/>
<path transform="translate(1103,333)" d="m0 0h5l-4 3-21 6h-5l3-3z" fill="#DA872F"/>
<path transform="translate(1107,291)" d="m0 0h9v5l-5 3h-8l1-3h2v-2l-4-1z" fill="#FAECC3"/>
<path transform="translate(1165,340)" d="m0 0h9l16 5 1 4-26-8z" fill="#E7AA5F"/>
<path transform="translate(910,327)" d="m0 0h3v3h-2l-1 3-4 4h-2l-2 4-5 7-1-3 7-11z" fill="#E7AC62"/>
<path transform="translate(1155,712)" d="m0 0 5 5 5 6 6 9-1 4-1-4-5-2-6-12v-2h-2z" fill="#EBB770"/>
<path transform="translate(949,640)" d="m0 0 3 1-1 3-9 7-8 9-2-1 8-11 7-7z" fill="#F2D09A"/>
<path transform="translate(905,427)" d="m0 0 6 4 7 8 1 6-5-2-7-12z" fill="#D9852C"/>
<path transform="translate(1014,349)" d="m0 0h21l-3 2-18 1-11 3-7 2 1-2 13-5z" fill="#D9852C"/>
<path transform="translate(941,696)" d="m0 0v3l-3 5 3-1 1 3-4 6-5-2 1-6z" fill="#B0925A"/>
<path transform="translate(1e3 646)" d="m0 0v3l-4 5-4 2-2 2-3-1-5 5-2-1 8-8z" fill="#E8AA5C"/>
<path transform="translate(1164,453)" d="m0 0h3v2l12 2 4 3-12-1-12-2 1-3z" fill="#E5A555"/>
<path transform="translate(1180,398)" d="m0 0h15l9 3 3 3h-7l-9-4h-3v2l-7-1z" fill="#D9852C"/>
<path transform="translate(1165,588)" d="m0 0 4 1v2h2l2 5v10l-2 2-5-16z" fill="#EDB76E"/>
<path transform="translate(925,544)" d="m0 0 2 4v10l-4 11-1-3 1-6v-13z" fill="#F5DCAD"/>
<path transform="translate(1123,301)" d="m0 0h5v2h-3l1 2 3 1-1 4-1-2h-16v-2l9-3z" fill="#E3A04F"/>
<path transform="translate(999,678)" d="m0 0h2l-1 9-5 2-4 4 1-4 2-5-2-1z" fill="#D28B3D"/>
<path transform="translate(1109,626)" d="m0 0 5 4 8 13v3l-4-2-8-13z" fill="#D9852C"/>
<path transform="translate(1201,555)" d="m0 0 5 2 7 12 1 7-3-3-7-12-3-4z" fill="#F2D29E"/>
<path transform="translate(1096,381)" d="m0 0 1 3-7 7-5 1-2-1 1-4z" fill="#F2D09A"/>
<path transform="translate(995,688)" d="m0 0h4l-1 6-4 9-2 6-1-4 2-10v-4z" fill="#EDBF7F"/>
<path transform="translate(852,477)" d="m0 0 1 2-3 1-2 4-7 2h-4-6l3-3 13-4z" fill="#EFBE75"/>
<path transform="translate(919,674)" d="m0 0 1 3-6 11-4 1-2-4 7-6z" fill="#DB8A33"/>
<path transform="translate(969,623)" d="m0 0v3l-10 14h-2l-2-2 1-4z" fill="#F1C98E"/>
<path transform="translate(982,614)" d="m0 0 2 1-1 3h-2l-6 12-2 3h-2l2-11 8-7z" fill="#F0BE77"/>
<path transform="translate(932,608)" d="m0 0m-1 1v3l-8 6-7 5-3-1 5-6 6-4h3v-2z" fill="#D9852C"/>
<path transform="translate(1284,606)" d="m0 0 5 2h2l2 6 6 3-1 4-4 3 2-6-10-5z" fill="#F4D9A9"/>
<path transform="translate(881,491)" d="m0 0 6 1-2 1v2h2l5 5 9 10-1 2-16-16-3-2-1 3z" fill="#CC8F48"/>
<path transform="translate(994,301)" d="m0 0h9l-5 4-12 7h-2v4l-3-1 1-4 10-6v-3z" fill="#DC9442"/>
<path transform="translate(861,735)" d="m0 0 4 2-2 6-5 1-1 2-3-1v-4l4-2z" fill="#F7DFB0"/>
<path transform="translate(1170,689)" d="m0 0 6 1 9 7 2 5-4-2-13-9z" fill="#E6A758"/>
<path transform="translate(1265,589)" d="m0 0 4 1 1 2h-2l4 11-1 3-5-4-2-6 3-1z" fill="#EFBD77"/>
<path transform="translate(1126,438)" d="m0 0h2l-1 3-8 5-10 4h-5l3-3 16-7z" fill="#F1CE95"/>
<path transform="translate(1103,432)" d="m0 0h6l-1 3-6 4-4 1-3-2v-3z" fill="#F2CF98"/>
<path transform="translate(1038,275)" d="m0 0 6 2-3 2v1 2l-13 4 1-3 5-3 1-2h-5v-1l7-1z" fill="#E19947"/>
<path transform="translate(794,683)" d="m0 0h17l1 2h-6l-2-1v2l-23 1v-1z" fill="#C98B42"/>
<path transform="translate(874,626)" d="m0 0 3 1-1 5-5 4-3 4v1l-8 1 2-3h2l2-4 8-5z" fill="#FAEBC4"/>
<path transform="translate(1195,543)" d="m0 0 6 1-1 3 1 4 4 2v2l3 1-3 1-5-1-5-10z" fill="#E9B167"/>
<path transform="translate(1145,364)" d="m0 0h17l-2 2-15 3h-5l1-2h2v-2z" fill="#EDB86F"/>
<path transform="translate(1049,312)" d="m0 0h7v1l-6 2 9 1h9l4 2h-19l-8-2v-3z" fill="#D9852C"/>
<path transform="translate(1057,305)" d="m0 0 14 1 7 2-2 2-5 1h-7l1-3-8-2z" fill="#E39F4E"/>
<path transform="translate(923,756)" d="m0 0 2 1v1l1 4-5 4-4 2-4-1h2v-2h2v-4z" fill="#DC8C36"/>
<path transform="translate(759,449)" d="m0 0 3 2v8l-1 4v15l-2-2-1-7v-13z" fill="#E8AC60"/>
<path transform="translate(1030,714)" d="m0 0h3l3 3-1 4-3 6-1-4-4 1z" fill="#EAB062"/>
<path transform="translate(1271,529)" d="m0 0 4 4 9 13v4l-3-1-6-10-4-7z" fill="#0A0707"/>
<path transform="translate(899,461)" d="m0 0h2v2h5v1l-15 4-4 1-3-2 11-5z" fill="#E7A759"/>
<path transform="translate(1072,286)" d="m0 0h15l17 1v1l-31 1-8 1 4-3z" fill="#F0BE77"/>
<path transform="translate(1234,957)" d="m0 0h1l1 27 9 1v1l-11 1-2-2v-6l1-1z" fill="#E8B470"/>
<path transform="translate(902,431)" d="m0 0 5 2 3 5v5l-5-1-3-6z" fill="#D9852C"/>
<path transform="translate(884,461)" d="m0 0h5l-2 3-13 6-3-1 4-4h2v-2z" fill="#E7AA5C"/>
<path transform="translate(1145,445)" d="m0 0h11l4 2 9 1v1l-5 1h-16v-2l5-1-8-1z" fill="#EDB76D"/>
<path transform="translate(1150,427)" d="m0 0h9l1 3-12 2h-7l3-3z" fill="#EAB46E"/>
<path transform="translate(1147,321)" d="m0 0h7l-2 2-3 2 1 2h-10l-1-5z" fill="#F0C17B"/>
<path transform="translate(944,677)" d="m0 0 3 1-1 5-3 6 1 4-5-2 2-8z" fill="#E7AC5D"/>
<path transform="translate(824,461)" d="m0 0 4 1v3l-13 3-4-3z" fill="#F2D5A9"/>
<path transform="translate(865,409)" d="m0 0 6 2 1 4h-12l1-4z" fill="#0A0707"/>
<path transform="translate(973,398)" d="m0 0 16 1 5-1v2l-9 3-8-1z" fill="#EBB667"/>
<path transform="translate(896,336)" d="m0 0 2 1-9 15h-2l1-6 4-9 4 1z" fill="#E8AC62"/>
<path transform="translate(931,310)" d="m0 0h2l-1 5-7 7-1 2-4 1 1-4z" fill="#F3D4A1"/>
<path transform="translate(1248,559)" d="m0 0 3 3 2 10v12l-2-3-2-10z" fill="#E19A47"/>
<path transform="translate(1073,485)" d="m0 0 7 1 4 3 7 4-3 1-15-6z" fill="#D9852C"/>
<path transform="translate(1051,433)" d="m0 0h6v1l-10 2h-4v2h12v1h-19v-3z" fill="#D9852C"/>
<path transform="translate(820,413)" d="m0 0 5 2 8 7v3l-4-1-9-8z" fill="#F6DBA6"/>
<path transform="translate(1143,318)" d="m0 0h11l2 1v2l-9 1h-9v-3z" fill="#D9862D"/>
<path transform="translate(877,664)" d="m0 0h3l-1 5-4 4-5 1 2-6z" fill="#F2CB79"/>
<path transform="translate(1150,416)" d="m0 0h6l-5 4-9 4h-5l3-3z" fill="#DC8E38"/>
<path transform="translate(1116,666)" d="m0 0 5 1 4 12-4-2-3-3-2-4z" fill="#E8AA5D"/>
<path transform="translate(918,634)" d="m0 0 4 1v2l-16 8-2-1 8-6z" fill="#F2D4A0"/>
<path transform="translate(915,575)" d="m0 0h2l1 6-2 3-7-1 2-7z" fill="#F4D8A6"/>
<path transform="translate(866,454)" d="m0 0h18l13 1 1 2-18 1 1-2-15-1z" fill="#EAAF64"/>
<path transform="translate(1e3 688)" d="m0 0 1 3v15l1 2h-2l-1 15h-1v-31z" fill="#D9852C"/>
<path transform="translate(787,686)" d="m0 0h15v2l13 1v1h-22l-6-2z" fill="#F0BE77"/>
<path transform="translate(1257,627)" d="m0 0 9 5 5 4-6 2-8-8z" fill="#EFBE7B"/>
<path transform="translate(1264,510)" d="m0 0 2 2 6 15v3l-5-4-1-8h-2z" fill="#A46422"/>
<path transform="translate(930,456)" d="m0 0h12v2l-4 1h-18l1-2z" fill="#EEBA70"/>
<path transform="translate(846,438)" d="m0 0 5 4v2l-10 2v-2l-3-1z" fill="#F0BE77"/>
<path transform="translate(1112,728)" d="m0 0h2l1 6-3 10h-3v-5l2-7z" fill="#EFBB74"/>
<path transform="translate(1218,418)" d="m0 0 6 2 5 9v2l-4-2-7-8z" fill="#F1C98B"/>
<path transform="translate(1048,735)" d="m0 0h3l2 5-2 1v25l-2-3z" fill="#D9852C"/>
<path transform="translate(1108,634)" d="m0 0 5 4 6 14-1 3-8-14z" fill="#D9852C"/>
<path transform="translate(1211,448)" d="m0 0 4 2 8 11h-3l-11-10 2-1z" fill="#E6A658"/>
<path transform="translate(1043,410)" d="m0 0 3 1-6 4-10 2-4-1 3-2z" fill="#DD8F39"/>
<path transform="translate(987,345)" d="m0 0h3v2l-17 9-3-1 11-7z" fill="#E6A85C"/>
<path transform="translate(1e3 326)" d="m0 0 2 1-9 3h-2v2l-16 7-3-1 20-10z" fill="#D9852C"/>
<path transform="translate(1102,315)" d="m0 0h6l-5 4 3 2-3 1h-10l2-3 6-3z" fill="#E09642"/>
<path transform="translate(1107,730)" d="m0 0h2l2 2v6l-1 1v7l-3-2-1-11z" fill="#D9852C"/>
<path transform="translate(900,649)" d="m0 0h2l-1 4-9 5h-4l1-3z" fill="#EBB670"/>
<path transform="translate(1177,382)" d="m0 0 5 1v2l-4 1h10v2l2 1-15-1-2-4z" fill="#EEBA72"/>
<path transform="translate(941,690)" d="m0 0 2 4-9 12h-2l1-5z" fill="#F5DAA9"/>
<path transform="translate(1173,573)" d="m0 0 5 5h3l-1 5-3-1-1 5-2-4-2-9z" fill="#E6A85B"/>
<path transform="translate(1066,430)" d="m0 0h4l-1 3-8 4h-2v-2l-2-1v-2z" fill="#E5A353"/>
<path transform="translate(937,341)" d="m0 0h2l1 4-5 5-7 3 1-3 6-5v-3z" fill="#E09743"/>
<path transform="translate(851,685)" d="m0 0 3 1-1 9-4-1-1-1v-5z" fill="#FCFDFC"/>
<path transform="translate(968,677)" d="m0 0h1v6l-1 1-1 7-5-2 2-6z" fill="#F4D6A3"/>
<path transform="translate(1269,610)" d="m0 0 6 3v2h2v2l5 2 1 2h-5l-9-8z" fill="#F1CD95"/>
<path transform="translate(1238,547)" d="m0 0 3 1 1 3 2 1 1 5v8l-2-1-5-15z" fill="#E8AF68"/>
<path transform="translate(1053,419)" d="m0 0h6v2l-4 2-12 1-1-2 5-2z" fill="#D9852C"/>
<path transform="translate(1021,338)" d="m0 0 11 1 6 2v2h-8l-9-4z" fill="#DD903A"/>
<path transform="translate(1008,288)" d="m0 0 3 1-3 4-6 2h-6v-2z" fill="#EDB96F"/>
<path transform="translate(1174,699)" d="m0 0 6 3v2l4 2 5 4v2l2 1-4-1-10-8-3-3z" fill="#E6A95F"/>
<path transform="translate(971,462)" d="m0 0h6v1l15 1v1l-12 2h-6v-4l-5 1z" fill="#EAB363"/>
<path transform="translate(982,423)" d="m0 0 7 1v3h-12l-6-2v-1z" fill="#DB8A32"/>
<path transform="translate(1225,388)" d="m0 0 4 2 8 7 5 4 1 4-5-3-5-5-8-7z" fill="#AF6B24"/>
<path transform="translate(880,344)" d="m0 0 4 2-2 6-3 5h-2l1-8z" fill="#E4A354"/>
<path transform="translate(1051,701)" d="m0 0 5 5 4 7v2l-4 1-5-13z" fill="#F3D5A1"/>
<path transform="translate(1200,588)" d="m0 0 3 4 3 8-2 1-1-4h-2l-1 4-2-6 1-1v-5z" fill="#D9862D"/>
<path transform="translate(1168,542)" d="m0 0 5 2 7 4-4 3-2 2-6-9z" fill="#E7AA5D"/>
<path transform="translate(882,468)" d="m0 0h5l-3 3-6 2 7 1-4 2-9-1 4-4z" fill="#EFC383"/>
<path transform="translate(979,702)" d="m0 0h1v5l-5 3-5 5 1-6 3-5 1 2z" fill="#D69A51"/>
<path transform="translate(978,696)" d="m0 0h4l-1 9-2-2-2 3h-2l1-6z" fill="#EFBD72"/>
<path transform="translate(1153,672)" d="m0 0 3 3 1 7-5-1-2-5h2z" fill="#ECB868"/>
<path transform="translate(1046,298)" d="m0 0h12v1l-6 1 12 1v1h-16l-4-1v-2z" fill="#D9862D"/>
<path transform="translate(869,722)" d="m0 0h2l-3 9-3 5h-2l-1-3z" fill="#0A0707"/>
<path transform="translate(1294,632)" d="m0 0h2l4 4 7 4v1l-12-1z" fill="#9A6225"/>
<path transform="translate(894,632)" d="m0 0h2v7l-1 2h-4l-1 2v-7z" fill="#EFBF73"/>
<path transform="translate(1168,516)" d="m0 0 6 1 10 5-1 4-10-5-3-3z" fill="#EEBB73"/>
<path transform="translate(1124,437)" d="m0 0 4 1-13 7-6-1 3-2z" fill="#D9852C"/>
<path transform="translate(1084,439)" d="m0 0h6v2l-9 3h-7l3-3z" fill="#EDB76E"/>
<path transform="translate(890,426)" d="m0 0 4 2 4 7v6l-3-3-5-11z" fill="#D9852C"/>
<path transform="translate(1036,793)" d="m0 0 4 1v2l-5 5-6 4v-3l3-4h3z" fill="#EEB971"/>
<path transform="translate(1e3 795)" d="m0 0h3v5l-7 3-2-1 3-5z" fill="#D9862D"/>
<path transform="translate(975,745)" d="m0 0 4 1-1 3-6 4-4-1 5-6z" fill="#D9852C"/>
<path transform="translate(1110,681)" d="m0 0h4l3 6v2l-5-1-3-1z" fill="#F4D183"/>
<path transform="translate(904,657)" d="m0 0 2 4-6 9-2-2 4-10z" fill="#E39F4E"/>
<path transform="translate(880,639)" d="m0 0h3v2l-7 5-4-1-1-3z" fill="#F6DFB4"/>
<path transform="translate(1037,622)" d="m0 0v3l-9 7h-3l1-5 7-2z" fill="#E7A759"/>
<path transform="translate(1137,620)" d="m0 0 5 5 3 9h-3l-5-10z" fill="#D9852C"/>
<path transform="translate(1179,615)" d="m0 0 3 2 5 13-1 3-6-12z" fill="#D9862D"/>
<path transform="translate(843,424)" d="m0 0 5 5 3 4h-2l-1 2-8-9z" fill="#EFBE72"/>
<path transform="translate(907,356)" d="m0 0 2 1-9 11h-2l1-4 3-6h3z" fill="#E7A85B"/>
<path transform="translate(1212,621)" d="m0 0h2l8 10 1 4-4-2-5-5z" fill="#D9862D"/>
<path transform="translate(966,749)" d="m0 0v3l-11 11-1 3h-6l5-4z" fill="#E09845"/>
<path transform="translate(1261,568)" d="m0 0 4 1 5 10v2l-3-1-6-10z" fill="#EEC283"/>
<path transform="translate(1194,503)" d="m0 0 5 5 2 5-4-2-7-5z" fill="#E39D4C"/>
<path transform="translate(884,418)" d="m0 0 2 2 2 12 2 4h-3l-3-7z" fill="#D9852C"/>
<path transform="translate(871,376)" d="m0 0 3 1 3 10v6l-2-2-4-12z" fill="#E09643"/>
<path transform="translate(1121,294)" d="m0 0 5 3v1l-15 1 2-3z" fill="#F7D98A"/>
<path transform="translate(846,699)" d="m0 0h5v3l-4 4h-5l1-3h2z" fill="#FAECCB"/>
<path transform="translate(1265,626)" d="m0 0 11 1v4h-6l-3-1v-2h-2z" fill="#F7E1B4"/>
<path transform="translate(1173,433)" d="m0 0h16v1h-8l2 6-9-5z" fill="#D9852C"/>
<path transform="translate(1075,393)" d="m0 0 2 1-1 5-8 2-4-1 10-6z" fill="#D9852C"/>
<path transform="translate(1111,388)" d="m0 0h3l-2 4-8 3h-2l2-4z" fill="#ECB868"/>
<path transform="translate(1045,712)" d="m0 0h1l1 9-1 15h-2v-15l-1-8z" fill="#D9852C"/>
<path transform="translate(1085,664)" d="m0 0 2 2v7l-2 4h-2v-10h2z" fill="#EAB064"/>
<path transform="translate(1277,628)" d="m0 0 7 3 2 2-4 2-10-3 4-2z" fill="#E7AB61"/>
<path transform="translate(996,422)" d="m0 0h5v2l-7 3h-5v-3z" fill="#F0C88C"/>
<path transform="translate(1e3 410)" d="m0 0h4l-1 3-5 3h-7l3-1v-2z" fill="#F7E6CA"/>
<path transform="translate(1023,380)" d="m0 0h2l-2 9-2 5-1-2-2-1 4-10z" fill="#F4D8A7"/>
<path transform="translate(931,362)" d="m0 0 4 2-8 4-10 2 3-3 9-3z" fill="#EBB670"/>
<path transform="translate(926,719)" d="m0 0 3 1-1 4-1 2h-7z" fill="#D9852C"/>
<path transform="translate(1095,677)" d="m0 0h1v6l-7 12h-2l6-12z" fill="#E6A657"/>
<path transform="translate(911,605)" d="m0 0 5 1-5 5-5-1-1 2-2-2 5-2v-2z" fill="#E7A95B"/>
<path transform="translate(921,348)" d="m0 0 2 1v3l-9 6-2-1 5-5z" fill="#E8AD62"/>
<path transform="translate(1159,345)" d="m0 0h11l4 2-1 2-9-1-5-2z" fill="#EAAF64"/>
<path transform="translate(1038,341)" d="m0 0 10 1 2 2-3 1-13-1 4-1z" fill="#D9852C"/>
<path transform="translate(1032,330)" d="m0 0h17v1l-11 1v2l-12-2v-1z" fill="#D9852C"/>
<path transform="translate(1101,679)" d="m0 0 1 3 4 2 4 4-1 2-5-2-4-5z" fill="#975D20"/>
<path transform="translate(1e3 609)" d="m0 0 2 1-7 7 1 2-4 2h-3l2-4z" fill="#DE933F"/>
<path transform="translate(1160,551)" d="m0 0 4 4v7h-2l-3-6z" fill="#EAB065"/>
<path transform="translate(1233,536)" d="m0 0 2 1 3 7-1 7-2-1-2-8z" fill="#D9852C"/>
<path transform="translate(790,399)" d="m0 0m-1 1m-1 1m-2 1h2l-1 3-10 8-4 3 2-4z" fill="#F0BE77"/>
<path transform="translate(1059,396)" d="m0 0 2 1-8 6-7 1v-2l9-4z" fill="#EFC991"/>
<path transform="translate(1151,384)" d="m0 0 4 1 1 3-15 2 3-3z" fill="#D9862E"/>
<path transform="translate(1123,362)" d="m0 0 3 1h-2l-1 3-2 2-4 5-2-1 3-4h-2l1-3z" fill="#E7A85B"/>
<path transform="translate(928,357)" d="m0 0 2 3-13 6-3-1z" fill="#DE933F"/>
<path transform="translate(910,327)" d="m0 0h3v3h-2l-1 3-4 3h-2l1-4z" fill="#F2CD94"/>
<path transform="translate(1082,678)" d="m0 0h3l2 6v5h-3l-2-7z" fill="#E5A353"/>
<path transform="translate(1253,622)" d="m0 0h5v3l7 4-1 2-4-2h-3l-3-4z" fill="#DC8D37"/>
<path transform="translate(1174,562)" d="m0 0 4 4 4 7-3 4-5-13z" fill="#E8AE63"/>
<path transform="translate(920,527)" d="m0 0 5 5 4 6-1 3-5-7h-2z" fill="#E29C4A"/>
<path transform="translate(792,473)" d="m0 0 2 1-2 4-8 4v-4z" fill="#F6E2C5"/>
<path transform="translate(810,379)" d="m0 0h1v13l-2-3-2 4-1-6 3-7z" fill="#D9852C"/>
<path transform="translate(876,369)" d="m0 0 3 4 3 8-1 2-8-12h3z" fill="#E29C4A"/>
<path transform="translate(1165,324)" d="m0 0 4 2-3 1h-15v-2z" fill="#F0BE77"/>
<path transform="translate(1118,292)" d="m0 0h13l-2 2-8 1h-6l1-2z" fill="#D9852C"/>
<path transform="translate(916,850)" d="m0 0h1v12l5-4-2 5-2 2h-3z" fill="#F9E6BA"/>
<path transform="translate(1081,741)" d="m0 0 5 5 3 4-1 2-8-7z" fill="#E8AB5E"/>
<path transform="translate(959,699)" d="m0 0h1l-1 8-1 2-1 9h-1l-1-7 2-9z" fill="#CC7D29"/>
<path transform="translate(1181,517)" d="m0 0 11 1 2 4-7-1h-3l-3-2z" fill="#DB8A32"/>
<path transform="translate(943,455)" d="m0 0h13l-1 2-13 1z" fill="#EBB167"/>
<path transform="translate(1175,323)" d="m0 0h6l1 3 5 2-3 1-11-4z" fill="#FAEAC2"/>
<path transform="translate(1016,317)" d="m0 0h9l-2 2 1 2h-9l-1-2h2z" fill="#ECB56B"/>
<path transform="translate(833,757)" d="m0 0 2 1-3 5v3h-6l3-5z" fill="#F0CA8F"/>
<path transform="translate(814,703)" d="m0 0v3l-2 2-12 2 4-3z" fill="#0A0707"/>
<path transform="translate(944,696)" d="m0 0 1 4-2 4-6 1 2-4z" fill="#F8E6B9"/>
<path transform="translate(919,674)" d="m0 0 1 3-2 4-5 3-3 3 2-5z" fill="#E29C4A"/>
<path transform="translate(1145,567)" d="m0 0 5 3 2 8-3-1-4-6z" fill="#EAAF64"/>
<path transform="translate(841,443)" d="m0 0 2 2h-2v2l-7 2-2-1v-2z" fill="#F6D9A5"/>
<path transform="translate(1178,362)" d="m0 0 5 2 3 2v2l-16-2v-1l8-1z" fill="#E5A556"/>
<path transform="translate(1088,337)" d="m0 0h3l-1 3-7 2h-5l3-3z" fill="#DC8D37"/>
<path transform="translate(1035,313)" d="m0 0h10v2l2 2h-7l-5-2z" fill="#F0BE77"/>
<path transform="translate(1038,282)" d="m0 0 4 1-1 2-10 3v-3z" fill="#0A0707"/>
<path transform="translate(741,979)" d="m0 0 2 4 9 2v1l-10 1-2-2v-5z" fill="#F7E0B2"/>
<path transform="translate(1042,782)" d="m0 0h1l2 9-2 2h-3l1-9z" fill="#F8E3B7"/>
<path transform="translate(990,783)" d="m0 0 5 1-1 3-7 2 1-4z" fill="#EDB66D"/>
<path transform="translate(999,775)" d="m0 0 5 2v2l2 1-4 1-6-2z" fill="#EEBA72"/>
<path transform="translate(1057,751)" d="m0 0 4 1 1 3-2 3-5-2z" fill="#8F581E"/>
<path transform="translate(809,681)" d="m0 0 9 1-2 3-7-1-8-1v-1z" fill="#FAEDC7"/>
<path transform="translate(1223,635)" d="m0 0 3 3 3 10h-3l-2-4z" fill="#D9852C"/>
<path transform="translate(1273,548)" d="m0 0h2v2l4 1 1-2 3 5h-3v2l-4-2z" fill="#E7AC62"/>
<path transform="translate(871,467)" d="m0 0m-2 1 3 1v2l-5 3h-4l2-4z" fill="#EFBF78"/>
<path transform="translate(1130,416)" d="m0 0 3 1-9 6-3 1 2-5z" fill="#F1CD96"/>
<path transform="translate(1070,412)" d="m0 0 4 1-3 1 5 1v1h-15l1-2z" fill="#D9852C"/>
<path transform="translate(1172,382)" d="m0 0h5l-3 3 1 3-13-2v-1l8-2z" fill="#D9852C"/>
<path transform="translate(1061,342)" d="m0 0h6l1 3-9 1-4-2z" fill="#DD903A"/>
<path transform="translate(1e3 296)" d="m0 0h2v2l-6 2-5 2-2-3 4-2z" fill="#F1C584"/>
<path transform="translate(1039,291)" d="m0 0 4 1-1 1h12v1l-11 2h-6z" fill="#DA8830"/>
<path transform="translate(1051,287)" d="m0 0 4 1 1 4h-10v-2l5-1z" fill="#FAE191"/>
<path transform="translate(916,754)" d="m0 0 5 1-1 2h-2l-1 8-4 1-1-2 3-2v-7z" fill="#7F4E1B"/>
<path transform="translate(1283,633)" d="m0 0h5l5 4v2l-5-1z" fill="#F1CF9A"/>
<path transform="translate(1255,534)" d="m0 0 2 4 2 11-3-3v-2h-2z" fill="#D9852C"/>
<path transform="translate(1252,522)" d="m0 0 4 4 3 6-5 1z" fill="#F0CA91"/>
<path transform="translate(833,423)" d="m0 0 7 6 1 3-5-2-5-5h2z" fill="#EAB164"/>
<path transform="translate(1091,406)" d="m0 0v3l-5 3h-2v-2l-5 1 2-2z" fill="#E4A151"/>
<path transform="translate(1178,388)" d="m0 0h9l-2 4-10-1z" fill="#D9852C"/>
<path transform="translate(848,384)" d="m0 0 5 1 6 5v1h-5l-4-4-2-1z" fill="#F3CA7E"/>
<path transform="translate(1007,381)" d="m0 0 3 1 1 2v7l-1-4h-2l-1 3h-1z" fill="#EEBA72"/>
<path transform="translate(1164,378)" d="m0 0 3 1-6 3-1 2-4 1-1-4z" fill="#D9852C"/>
<path transform="translate(917,323)" d="m0 0 2 2-2 7-3 3v-6-3z" fill="#D2802A"/>
<path transform="translate(1058,297)" d="m0 0h12l5 1-1 2-9 1 3-2-10-1z" fill="#D9862E"/>
<path transform="translate(994,294)" d="m0 0 8 1v2l-13 2z" fill="#D9852C"/>
<path transform="translate(994,271)" d="m0 0h11v2h-7l-4 2-3 3-1-4h3z" fill="#EDBD7B"/>
<path transform="translate(1057,725)" d="m0 0 2 3 1 10h-2l-2-5z" fill="#E8AA5D"/>
<path transform="translate(991,712)" d="m0 0 2 3-1 11h-2v-11z" fill="#E29D4A"/>
<path transform="translate(1185,699)" d="m0 0 5 2h3l1 7-6-4z" fill="#F4D7A6"/>
<path transform="translate(1099,684)" d="m0 0 4 2 2 6h-3l-3-4z" fill="#F2C97A"/>
<path transform="translate(953,636)" d="m0 0h2l1 5h-2l-2 5-2-1 1-4v-3z" fill="#DEA054"/>
<path transform="translate(775,419)" d="m0 0h2l-1 4-4 6-3-1z" fill="#F7DEAD"/>
<path transform="translate(1182,405)" d="m0 0 10 2 1 2h-9l-6-1z" fill="#DC8C36"/>
<path transform="translate(1155,394)" d="m0 0h4l-1 3-7 3-1-3 1-2z" fill="#EBB976"/>
<path transform="translate(844,384)" d="m0 0h4v2l5 2 1 5h-3l-2-1v-4z" fill="#D48632"/>
<path transform="translate(957,349)" d="m0 0 2 1-2 2 1 2-7 4-3-1z" fill="#E4A355"/>
<path transform="translate(1066,321)" d="m0 0h10v3h-8l-3-2z" fill="#E6A657"/>
<path transform="translate(1038,275)" d="m0 0 6 2-3 2v1 2h-6l2-3v-3z" fill="#F0BE77"/>
<path transform="translate(1025,777)" d="m0 0h1l-1 8-1 2h-2l-1-4z" fill="#DA8931"/>
<path transform="translate(955,660)" d="m0 0 1 3-4 11-2 1v-4h2v-8z" fill="#D9852C"/>
<path transform="translate(1282,642)" d="m0 0h15l2 4-17-3z" fill="#9D6121"/>
<path transform="translate(973,622)" d="m0 0 2 4h2l-2 4-2 3h-2z" fill="#E6A85D"/>
<path transform="translate(1242,480)" d="m0 0 4 4 3 6v2l-3 1-4-11z" fill="#F0C88D"/>
<path transform="translate(1201,458)" d="m0 0 4 1 2 6h-5z" fill="#F7D888"/>
<path transform="translate(1147,428)" d="m0 0h3v2l4 1-13 1 3-3z" fill="#DE933E"/>
<path transform="translate(1102,426)" d="m0 0h3v2l-5 2-1 2h-5l1-4z" fill="#ECB76F"/>
<path transform="translate(836,416)" d="m0 0 7 6v3l-4-2-4-5z" fill="#F6D487"/>
<path transform="translate(1227,401)" d="m0 0 5 3 2 3h-2l-1 3-5-8z" fill="#EBB46D"/>
<path transform="translate(1169,392)" d="m0 0 6 2-3 2-8 1 1-3z" fill="#E6A756"/>
<path transform="translate(1026,284)" d="m0 0 5 1v4l-9 1v-2l4-3z" fill="#CA7C29"/>
<path transform="translate(968,910)" d="m0 0h1v17h-1l-1-10-2 1 2-7z" fill="#F1CB93"/>
<path transform="translate(1064,741)" d="m0 0 8 2v2h-4l-1 4-3-6z" fill="#E4A354"/>
<path transform="translate(1033,714)" d="m0 0 3 3-1 4-3 4v-10z" fill="#D9852C"/>
<path transform="translate(918,624)" d="m0 0 2 1-3 3 4 1 1 3-2 1v-3l-8 1 1-3z" fill="#DF9542"/>
<path transform="translate(1282,560)" d="m0 0 5 3 4 5-5-2-7-2 3-1z" fill="#EBB369"/>
<path transform="translate(1165,489)" d="m0 0h9l3 2h-6v2l-6-2z" fill="#D9852C"/>
<path transform="translate(852,477)" d="m0 0 1 2-3 1-2 4h-5v-3z" fill="#F2C77C"/>
<path transform="translate(1130,471)" d="m0 0 9 1-3 2h-10l1-2z" fill="#D9852C"/>
<path transform="translate(1206,459)" d="m0 0 5 1 2 1v3h2v2l-5-2-4-3z" fill="#D9852C"/>
<path transform="translate(1088,451)" d="m0 0h8v2l-2 1h-10z" fill="#E6A658"/>
<path transform="translate(991,398)" d="m0 0h3v2l-9 3h-5l1-2 8-2z" fill="#ECB56B"/>
<path transform="translate(1034,379)" d="m0 0 4 1-3 3-6 1-2-1v-2h7z" fill="#D9872E"/>
<path transform="translate(972,344)" d="m0 0 5 2-3 2-10 2 2-3z" fill="#D9852C"/>
<path transform="translate(970,317)" d="m0 0 2 2-7 3-4 1v-3z" fill="#EFC68B"/>
<path transform="translate(831,794)" d="m0 0 2 2-10 8-2-1 7-7h3z" fill="#F0BE77"/>
<path transform="translate(1094,754)" d="m0 0 4 5v5l-5-5-1-4z" fill="#D1802A"/>
<path transform="translate(971,743)" d="m0 0 4 1v2l-8 5 1-4z" fill="#F4CD7F"/>
<path transform="translate(937,728)" d="m0 0h2l1 4-4 3h-5l1-2z" fill="#D9852C"/>
<path transform="translate(1180,685)" d="m0 0 5 1 5 3-4 1-8-2z" fill="#E7A95D"/>
<path transform="translate(1155,671)" d="m0 0 4 2 5 4h-3l-1 2-5-6z" fill="#E5A85E"/>
<path transform="translate(878,646)" d="m0 0 1 2-5 9-3 1 2-5z" fill="#ECB970"/>
<path transform="translate(1280,638)" d="m0 0 8 1 1 3-9-1z" fill="#F4D7A4"/>
<path transform="translate(1257,560)" d="m0 0h3v3h2l2 6-4-1z" fill="#E7A95D"/>
<path transform="translate(881,491)" d="m0 0 6 1-2 1v2h2l1 3-4-2-3-2-1 3z" fill="#E29C4C"/>
<path transform="translate(927,344)" d="m0 0 3 1v2l-4 3-4-1z" fill="#F1CF98"/>
<path transform="translate(1018,326)" d="m0 0h12l-1 2-4 1-9-1z" fill="#F8DD8F"/>
<path transform="translate(888,320)" d="m0 0 1 3-3 5-3 1-2-1-1 2 1-4h5l1-5z" fill="#DE923D"/>
<path transform="translate(993,278)" d="m0 0 1 2 4-1v2h5l-1 2-5 1v-2l-4-1z" fill="#D19046"/>
</svg>
